%TF.GenerationSoftware,KiCad,Pcbnew,6.0.0-rc1-unknown-c40e921cb3~144~ubuntu20.04.1*%
%TF.CreationDate,2021-11-23T20:48:53+02:00*%
%TF.ProjectId,solar_lantern,736f6c61-725f-46c6-916e-7465726e2e6b,1*%
%TF.SameCoordinates,Original*%
%TF.FileFunction,Paste,Top*%
%TF.FilePolarity,Positive*%
%FSLAX46Y46*%
G04 Gerber Fmt 4.6, Leading zero omitted, Abs format (unit mm)*
G04 Created by KiCad (PCBNEW 6.0.0-rc1-unknown-c40e921cb3~144~ubuntu20.04.1) date 2021-11-23 20:48:53*
%MOMM*%
%LPD*%
G01*
G04 APERTURE LIST*
G04 Aperture macros list*
%AMRoundRect*
0 Rectangle with rounded corners*
0 $1 Rounding radius*
0 $2 $3 $4 $5 $6 $7 $8 $9 X,Y pos of 4 corners*
0 Add a 4 corners polygon primitive as box body*
4,1,4,$2,$3,$4,$5,$6,$7,$8,$9,$2,$3,0*
0 Add four circle primitives for the rounded corners*
1,1,$1+$1,$2,$3*
1,1,$1+$1,$4,$5*
1,1,$1+$1,$6,$7*
1,1,$1+$1,$8,$9*
0 Add four rect primitives between the rounded corners*
20,1,$1+$1,$2,$3,$4,$5,0*
20,1,$1+$1,$4,$5,$6,$7,0*
20,1,$1+$1,$6,$7,$8,$9,0*
20,1,$1+$1,$8,$9,$2,$3,0*%
G04 Aperture macros list end*
%ADD10RoundRect,0.575000X-0.690000X-0.575000X0.690000X-0.575000X0.690000X0.575000X-0.690000X0.575000X0*%
%ADD11RoundRect,0.395000X-0.395000X-0.755000X0.395000X-0.755000X0.395000X0.755000X-0.395000X0.755000X0*%
%ADD12RoundRect,0.250000X-1.500000X-0.550000X1.500000X-0.550000X1.500000X0.550000X-1.500000X0.550000X0*%
%ADD13RoundRect,0.225000X0.225000X0.250000X-0.225000X0.250000X-0.225000X-0.250000X0.225000X-0.250000X0*%
%ADD14RoundRect,0.200000X0.200000X0.275000X-0.200000X0.275000X-0.200000X-0.275000X0.200000X-0.275000X0*%
%ADD15RoundRect,0.225000X-0.225000X-0.250000X0.225000X-0.250000X0.225000X0.250000X-0.225000X0.250000X0*%
%ADD16RoundRect,0.200000X-0.200000X-0.275000X0.200000X-0.275000X0.200000X0.275000X-0.200000X0.275000X0*%
%ADD17RoundRect,0.218750X0.218750X0.256250X-0.218750X0.256250X-0.218750X-0.256250X0.218750X-0.256250X0*%
%ADD18RoundRect,0.200000X-0.275000X0.200000X-0.275000X-0.200000X0.275000X-0.200000X0.275000X0.200000X0*%
%ADD19RoundRect,0.140000X-0.140000X-0.170000X0.140000X-0.170000X0.140000X0.170000X-0.140000X0.170000X0*%
%ADD20RoundRect,0.150000X0.150000X-0.587500X0.150000X0.587500X-0.150000X0.587500X-0.150000X-0.587500X0*%
%ADD21R,2.600000X1.500000*%
%ADD22R,0.450000X0.600000*%
%ADD23RoundRect,0.200000X0.275000X-0.200000X0.275000X0.200000X-0.275000X0.200000X-0.275000X-0.200000X0*%
%ADD24RoundRect,0.250000X-0.262500X-0.450000X0.262500X-0.450000X0.262500X0.450000X-0.262500X0.450000X0*%
%ADD25R,5.700000X2.000000*%
%ADD26R,3.900000X1.600000*%
%ADD27RoundRect,0.225000X0.250000X-0.225000X0.250000X0.225000X-0.250000X0.225000X-0.250000X-0.225000X0*%
%ADD28RoundRect,0.250000X0.362500X1.425000X-0.362500X1.425000X-0.362500X-1.425000X0.362500X-1.425000X0*%
%ADD29R,1.100000X0.510000*%
%ADD30RoundRect,0.150000X-0.825000X-0.150000X0.825000X-0.150000X0.825000X0.150000X-0.825000X0.150000X0*%
%ADD31RoundRect,0.150000X-0.512500X-0.150000X0.512500X-0.150000X0.512500X0.150000X-0.512500X0.150000X0*%
%ADD32RoundRect,0.218750X-0.218750X-0.256250X0.218750X-0.256250X0.218750X0.256250X-0.218750X0.256250X0*%
%ADD33RoundRect,0.225000X-0.250000X0.225000X-0.250000X-0.225000X0.250000X-0.225000X0.250000X0.225000X0*%
%ADD34R,3.400000X1.250000*%
%ADD35R,4.300000X1.450000*%
%ADD36R,0.600000X0.450000*%
%ADD37RoundRect,0.150000X-0.150000X0.587500X-0.150000X-0.587500X0.150000X-0.587500X0.150000X0.587500X0*%
G04 APERTURE END LIST*
D10*
%TO.C,D10*%
X127735000Y-81500000D03*
D11*
X124990000Y-81500000D03*
%TD*%
D12*
%TO.C,C14*%
X133400000Y-43200000D03*
X138800000Y-43200000D03*
%TD*%
D13*
%TO.C,C4*%
X144997500Y-62402500D03*
X143447500Y-62402500D03*
%TD*%
D14*
%TO.C,R1*%
X134725000Y-74200000D03*
X133075000Y-74200000D03*
%TD*%
D13*
%TO.C,C12*%
X129675000Y-60500000D03*
X128125000Y-60500000D03*
%TD*%
D15*
%TO.C,C2*%
X133625000Y-64400000D03*
X135175000Y-64400000D03*
%TD*%
D16*
%TO.C,R12*%
X192775000Y-33600000D03*
X194425000Y-33600000D03*
%TD*%
D17*
%TO.C,D3*%
X197487500Y-24000000D03*
X195912500Y-24000000D03*
%TD*%
D18*
%TO.C,R15*%
X122600000Y-50375000D03*
X122600000Y-52025000D03*
%TD*%
D14*
%TO.C,R16*%
X124125000Y-54000000D03*
X122475000Y-54000000D03*
%TD*%
D18*
%TO.C,R5*%
X129722500Y-55977500D03*
X129722500Y-57627500D03*
%TD*%
D17*
%TO.C,D4*%
X197487500Y-25600000D03*
X195912500Y-25600000D03*
%TD*%
D19*
%TO.C,C3*%
X134320000Y-63100000D03*
X135280000Y-63100000D03*
%TD*%
D20*
%TO.C,Q3*%
X124250000Y-52137500D03*
X126150000Y-52137500D03*
X125200000Y-50262500D03*
%TD*%
D21*
%TO.C,D11*%
X122900000Y-88300000D03*
X122900000Y-91300000D03*
%TD*%
D22*
%TO.C,D12*%
X131500000Y-59250000D03*
X131500000Y-61350000D03*
%TD*%
D23*
%TO.C,R4*%
X147922500Y-55227500D03*
X147922500Y-53577500D03*
%TD*%
D15*
%TO.C,C13*%
X122525000Y-64100000D03*
X124075000Y-64100000D03*
%TD*%
D24*
%TO.C,R18*%
X125987500Y-65822500D03*
X127812500Y-65822500D03*
%TD*%
D25*
%TO.C,L1*%
X136122500Y-57402500D03*
X136122500Y-52602500D03*
%TD*%
D13*
%TO.C,C9*%
X165539511Y-41875001D03*
X163989511Y-41875001D03*
%TD*%
D12*
%TO.C,C1*%
X135300000Y-69300000D03*
X140700000Y-69300000D03*
%TD*%
D23*
%TO.C,R21*%
X69000000Y-39825000D03*
X69000000Y-38175000D03*
%TD*%
D26*
%TO.C,L2*%
X125100000Y-57350000D03*
X125100000Y-60250000D03*
%TD*%
D27*
%TO.C,C7*%
X131622500Y-51077500D03*
X131622500Y-49527500D03*
%TD*%
D18*
%TO.C,R17*%
X130200000Y-64075000D03*
X130200000Y-65725000D03*
%TD*%
D28*
%TO.C,R6*%
X139285000Y-49302500D03*
X133360000Y-49302500D03*
%TD*%
D29*
%TO.C,U1*%
X146272500Y-59202500D03*
X146272500Y-58202500D03*
X146272500Y-57202500D03*
X146272500Y-56202500D03*
X146272500Y-55202500D03*
X141172500Y-55202500D03*
X141172500Y-56202500D03*
X141172500Y-57202500D03*
X141172500Y-58202500D03*
X141172500Y-59202500D03*
%TD*%
D14*
%TO.C,R9*%
X159989511Y-47275001D03*
X158339511Y-47275001D03*
%TD*%
D30*
%TO.C,U2*%
X162149511Y-43475001D03*
X162149511Y-44745001D03*
X162149511Y-46015001D03*
X162149511Y-47285001D03*
X162149511Y-48555001D03*
X162149511Y-49825001D03*
X162149511Y-51095001D03*
X167099511Y-51095001D03*
X167099511Y-49825001D03*
X167099511Y-48555001D03*
X167099511Y-47285001D03*
X167099511Y-46015001D03*
X167099511Y-44745001D03*
X167099511Y-43475001D03*
%TD*%
D20*
%TO.C,Q2*%
X133350000Y-61537500D03*
X135250000Y-61537500D03*
X134300000Y-59662500D03*
%TD*%
D31*
%TO.C,U3*%
X126162500Y-62150000D03*
X126162500Y-63100000D03*
X126162500Y-64050000D03*
X128437500Y-64050000D03*
X128437500Y-62150000D03*
%TD*%
D17*
%TO.C,D7*%
X197487500Y-30400000D03*
X195912500Y-30400000D03*
%TD*%
D16*
%TO.C,R10*%
X192775000Y-32000000D03*
X194425000Y-32000000D03*
%TD*%
D32*
%TO.C,D2*%
X195912500Y-27200000D03*
X197487500Y-27200000D03*
%TD*%
D22*
%TO.C,D1*%
X131522500Y-57752500D03*
X131522500Y-55652500D03*
%TD*%
D14*
%TO.C,R3*%
X142647500Y-53602500D03*
X140997500Y-53602500D03*
%TD*%
D33*
%TO.C,C6*%
X129722500Y-52927500D03*
X129722500Y-54477500D03*
%TD*%
D34*
%TO.C,SW1*%
X199100000Y-42775000D03*
D35*
X199850000Y-44525000D03*
D34*
X199100000Y-39025000D03*
D35*
X199850000Y-37275000D03*
%TD*%
D23*
%TO.C,R8*%
X148387740Y-49737740D03*
X148387740Y-48087740D03*
%TD*%
D27*
%TO.C,C5*%
X147922500Y-58277500D03*
X147922500Y-56727500D03*
%TD*%
D14*
%TO.C,R2*%
X145047500Y-60802500D03*
X143397500Y-60802500D03*
%TD*%
D32*
%TO.C,D6*%
X195912500Y-32000000D03*
X197487500Y-32000000D03*
%TD*%
D15*
%TO.C,C10*%
X155289511Y-47275001D03*
X156839511Y-47275001D03*
%TD*%
D18*
%TO.C,R14*%
X143587740Y-48087740D03*
X143587740Y-49737740D03*
%TD*%
D36*
%TO.C,D8*%
X122450000Y-62300000D03*
X124550000Y-62300000D03*
%TD*%
D23*
%TO.C,R7*%
X146787740Y-49737740D03*
X146787740Y-48087740D03*
%TD*%
%TO.C,R13*%
X141987740Y-49737740D03*
X141987740Y-48087740D03*
%TD*%
D32*
%TO.C,D5*%
X195912500Y-28800000D03*
X197487500Y-28800000D03*
%TD*%
D33*
%TO.C,C11*%
X145187740Y-48137740D03*
X145187740Y-49687740D03*
%TD*%
D18*
%TO.C,R19*%
X159200000Y-57075000D03*
X159200000Y-58725000D03*
%TD*%
D10*
%TO.C,D9*%
X127735000Y-85500000D03*
D11*
X124990000Y-85500000D03*
%TD*%
D37*
%TO.C,Q1*%
X134950000Y-76062500D03*
X133050000Y-76062500D03*
X134000000Y-77937500D03*
%TD*%
D23*
%TO.C,R20*%
X151000000Y-39825000D03*
X151000000Y-38175000D03*
%TD*%
D16*
%TO.C,R11*%
X192775000Y-30400000D03*
X194425000Y-30400000D03*
%TD*%
D19*
%TO.C,C8*%
X141242500Y-60502500D03*
X142202500Y-60502500D03*
%TD*%
M02*
