%TF.GenerationSoftware,KiCad,Pcbnew,6.0.0-rc1-unknown-c40e921cb3~144~ubuntu20.04.1*%
%TF.CreationDate,2021-11-23T20:48:53+02:00*%
%TF.ProjectId,solar_lantern,736f6c61-725f-46c6-916e-7465726e2e6b,1*%
%TF.SameCoordinates,Original*%
%TF.FileFunction,Copper,L2,Bot*%
%TF.FilePolarity,Positive*%
%FSLAX46Y46*%
G04 Gerber Fmt 4.6, Leading zero omitted, Abs format (unit mm)*
G04 Created by KiCad (PCBNEW 6.0.0-rc1-unknown-c40e921cb3~144~ubuntu20.04.1) date 2021-11-23 20:48:53*
%MOMM*%
%LPD*%
G01*
G04 APERTURE LIST*
%TA.AperFunction,ComponentPad*%
%ADD10R,1.700000X1.700000*%
%TD*%
%TA.AperFunction,ComponentPad*%
%ADD11O,1.700000X1.700000*%
%TD*%
%TA.AperFunction,ComponentPad*%
%ADD12C,8.000000*%
%TD*%
%TA.AperFunction,ViaPad*%
%ADD13C,0.850000*%
%TD*%
%TA.AperFunction,Conductor*%
%ADD14C,0.400000*%
%TD*%
%TA.AperFunction,Conductor*%
%ADD15C,0.200000*%
%TD*%
G04 APERTURE END LIST*
D10*
%TO.P,BT1,1,+*%
%TO.N,+BATT*%
X105000000Y-31000000D03*
D11*
%TO.P,BT1,2,-*%
%TO.N,GND*%
X105000000Y-28460000D03*
%TD*%
D10*
%TO.P,BT2,1,+*%
%TO.N,Net-(BT2-Pad1)*%
X146000000Y-31000000D03*
D11*
%TO.P,BT2,2,-*%
%TO.N,GND*%
X146000000Y-28460000D03*
%TD*%
D10*
%TO.P,BT3,1,+*%
%TO.N,Net-(BT3-Pad1)*%
X63000000Y-31000000D03*
D11*
%TO.P,BT3,2,-*%
%TO.N,GND*%
X63000000Y-28460000D03*
%TD*%
D12*
%TO.P,J1,1,Pin_1*%
%TO.N,GND*%
X119000000Y-83500000D03*
%TO.P,J1,2,Pin_2*%
%TO.N,/Solar charger/VIN*%
X134000000Y-83500000D03*
%TD*%
D10*
%TO.P,J2,1,MISO*%
%TO.N,/MISO*%
X166989511Y-56600000D03*
D11*
%TO.P,J2,2,VCC*%
%TO.N,+BATT*%
X166989511Y-59140000D03*
%TO.P,J2,3,SCK*%
%TO.N,/SCK*%
X164449511Y-56600000D03*
%TO.P,J2,4,MOSI*%
%TO.N,/MOSI*%
X164449511Y-59140000D03*
%TO.P,J2,5,~{RST}*%
%TO.N,/RESET*%
X161909511Y-56600000D03*
%TO.P,J2,6,GND*%
%TO.N,GND*%
X161909511Y-59140000D03*
%TD*%
D13*
%TO.N,GND*%
X136600000Y-65500000D03*
X201000000Y-29000000D03*
X150991925Y-24000000D03*
X50991925Y-89000000D03*
X201000000Y-34000000D03*
X165324511Y-40785001D03*
X50991925Y-44000000D03*
X50991925Y-24000000D03*
X50991925Y-114000000D03*
X175991925Y-24000000D03*
X127300000Y-64700000D03*
X50991925Y-59000000D03*
X91000000Y-144000000D03*
X61000000Y-144000000D03*
X138800000Y-44600000D03*
X127300000Y-63100000D03*
X76000000Y-144000000D03*
X81000000Y-144000000D03*
X122500000Y-79500000D03*
X113500000Y-83500000D03*
X141300000Y-43700000D03*
X119000000Y-89000000D03*
X115000000Y-79500000D03*
X143500000Y-53600000D03*
X140700000Y-70800000D03*
X50991925Y-134000000D03*
X50991925Y-124000000D03*
X129000000Y-59600000D03*
X124100000Y-65100000D03*
X190991925Y-24000000D03*
X111000000Y-144000000D03*
X86000000Y-144000000D03*
X50991925Y-54000000D03*
X129200000Y-65700000D03*
X50991925Y-119000000D03*
X165991925Y-24000000D03*
X131522500Y-52902500D03*
X145200000Y-47200000D03*
X121000000Y-144000000D03*
X50991925Y-69000000D03*
X128800000Y-52900000D03*
X136400000Y-43200000D03*
X140522500Y-60502500D03*
X85991925Y-24000000D03*
X201600000Y-43100000D03*
X201000000Y-64000000D03*
X80991925Y-24000000D03*
X50991925Y-94000000D03*
X71000000Y-144000000D03*
X170991925Y-24000000D03*
X70991925Y-24000000D03*
X200991925Y-24000000D03*
X110991925Y-24000000D03*
X50991925Y-99000000D03*
X147900000Y-59200000D03*
X96000000Y-144000000D03*
X115991925Y-24000000D03*
X100991925Y-24000000D03*
X160991925Y-24000000D03*
X145222500Y-58202500D03*
X131522500Y-54102500D03*
X125991925Y-24000000D03*
X120991925Y-24000000D03*
X50991925Y-64000000D03*
X56000000Y-144000000D03*
X50991925Y-84000000D03*
X101000000Y-144000000D03*
X50991925Y-29000000D03*
X201000000Y-49000000D03*
X75991925Y-24000000D03*
X133600000Y-63100000D03*
X180991925Y-24000000D03*
X130991925Y-24000000D03*
X132700000Y-64400000D03*
X50991925Y-104000000D03*
X145991925Y-24000000D03*
X90991925Y-24000000D03*
X50991925Y-109000000D03*
X185991925Y-24000000D03*
X65991925Y-24000000D03*
X119000000Y-78000000D03*
X155824511Y-48185001D03*
X50991925Y-129000000D03*
X115000000Y-87500000D03*
X135991925Y-24000000D03*
X116000000Y-144000000D03*
X55991925Y-24000000D03*
X95991925Y-24000000D03*
X105991925Y-24000000D03*
X50991925Y-39000000D03*
X166524511Y-41885001D03*
X66000000Y-144000000D03*
X201000000Y-59000000D03*
X106000000Y-144000000D03*
X140991925Y-24000000D03*
X201000000Y-54000000D03*
X138800000Y-41700000D03*
X155991925Y-24000000D03*
X50991925Y-79000000D03*
X140700000Y-67800000D03*
X50991925Y-34000000D03*
X50991925Y-144000000D03*
X201600000Y-39100000D03*
X143600000Y-47200000D03*
X50991925Y-49000000D03*
X50991925Y-74000000D03*
X50991925Y-139000000D03*
X60991925Y-24000000D03*
X125100000Y-63200000D03*
%TO.N,+BATT*%
X158989511Y-43200000D03*
X164024511Y-40785001D03*
X158989511Y-46600000D03*
%TO.N,/MISO*%
X159200000Y-56100000D03*
%TO.N,/~{CHARGING}*%
X145262740Y-51262740D03*
X148400000Y-51300000D03*
%TO.N,/CHARLIE_2*%
X191100000Y-31100000D03*
X191072500Y-32900000D03*
%TO.N,/LED_PWM*%
X141100000Y-66600000D03*
X154789511Y-49100000D03*
X133800000Y-66600000D03*
X154789511Y-50600000D03*
%TO.N,/LED_FB*%
X186500000Y-80000000D03*
X176500000Y-140000000D03*
X156500000Y-130000000D03*
X196500000Y-85000000D03*
X156500000Y-135000000D03*
X141500000Y-115000000D03*
X176500000Y-115000000D03*
X128000000Y-79700000D03*
X136500000Y-140000000D03*
X201500000Y-80000000D03*
X129000000Y-79700000D03*
X201500000Y-125000000D03*
X191500000Y-100000000D03*
X181500000Y-130000000D03*
X171500000Y-90000000D03*
X141500000Y-90000000D03*
X151500000Y-115000000D03*
X136500000Y-115000000D03*
X196500000Y-125000000D03*
X146500000Y-130000000D03*
X191500000Y-95000000D03*
X136500000Y-90000000D03*
X166500000Y-115000000D03*
X156500000Y-110000000D03*
X130000000Y-88300000D03*
X136500000Y-125000000D03*
X146500000Y-135000000D03*
X141500000Y-95000000D03*
X127000000Y-77700000D03*
X196500000Y-110000000D03*
X171500000Y-125000000D03*
X181500000Y-125000000D03*
X201500000Y-95000000D03*
X129000000Y-87300000D03*
X156500000Y-105000000D03*
X176500000Y-105000000D03*
X201500000Y-135000000D03*
X201500000Y-110000000D03*
X128987851Y-76700000D03*
X136500000Y-135000000D03*
X186500000Y-95000000D03*
X141500000Y-100000000D03*
X127000000Y-87300000D03*
X126500000Y-95000000D03*
X181500000Y-105000000D03*
X131500000Y-75000000D03*
X186500000Y-120000000D03*
X129000000Y-77700000D03*
X151500000Y-140000000D03*
X176500000Y-85000000D03*
X186500000Y-75000000D03*
X156500000Y-120000000D03*
X166500000Y-85000000D03*
X146500000Y-140000000D03*
X171500000Y-120000000D03*
X196500000Y-135000000D03*
X201500000Y-100000000D03*
X151500000Y-110000000D03*
X161500000Y-90000000D03*
X151500000Y-135000000D03*
X186500000Y-115000000D03*
X141500000Y-135000000D03*
X156500000Y-95000000D03*
X186500000Y-90000000D03*
X126300000Y-83500000D03*
X181500000Y-110000000D03*
X201500000Y-85000000D03*
X146500000Y-115000000D03*
X141500000Y-110000000D03*
X128000000Y-87300000D03*
X126987851Y-76700000D03*
X181500000Y-120000000D03*
X161500000Y-135000000D03*
X196500000Y-95000000D03*
X196500000Y-100000000D03*
X136500000Y-95000000D03*
X128000000Y-77700000D03*
X127200000Y-83500000D03*
X201500000Y-115000000D03*
X131500000Y-110000000D03*
X166500000Y-80000000D03*
X141500000Y-80000000D03*
X129987851Y-78699013D03*
X146500000Y-75000000D03*
X126500000Y-100000000D03*
X186500000Y-85000000D03*
X176500000Y-135000000D03*
X176500000Y-130000000D03*
X131500000Y-125000000D03*
X131500000Y-95000000D03*
X171500000Y-95000000D03*
X126500000Y-130000000D03*
X181500000Y-115000000D03*
X161500000Y-80000000D03*
X186500000Y-100000000D03*
X151500000Y-105000000D03*
X125987851Y-76700000D03*
X141500000Y-85000000D03*
X130000000Y-79699013D03*
X130000000Y-87300000D03*
X130000000Y-90300000D03*
X171500000Y-110000000D03*
X171500000Y-135000000D03*
X181500000Y-75000000D03*
X166500000Y-95000000D03*
X136500000Y-120000000D03*
X141500000Y-140000000D03*
X156500000Y-125000000D03*
X161500000Y-130000000D03*
X186500000Y-105000000D03*
X191500000Y-105000000D03*
X181500000Y-95000000D03*
X127000000Y-88300000D03*
X126500000Y-125000000D03*
X136500000Y-105000000D03*
X151500000Y-125000000D03*
X128000000Y-90300000D03*
X136500000Y-100000000D03*
X146500000Y-80000000D03*
X141500000Y-125000000D03*
X166500000Y-135000000D03*
X126500000Y-140000000D03*
X126987851Y-78700000D03*
X196500000Y-115000000D03*
X176500000Y-75000000D03*
X201500000Y-90000000D03*
X171500000Y-75000000D03*
X156500000Y-100000000D03*
X130000000Y-89300000D03*
X156500000Y-115000000D03*
X201500000Y-120000000D03*
X126000000Y-90300000D03*
X191500000Y-90000000D03*
X166500000Y-110000000D03*
X151500000Y-80000000D03*
X131500000Y-100000000D03*
X141500000Y-120000000D03*
X151500000Y-100000000D03*
X131500000Y-105000000D03*
X161500000Y-105000000D03*
X176500000Y-80000000D03*
X166500000Y-100000000D03*
X196500000Y-75000000D03*
X166500000Y-130000000D03*
X126000000Y-88300000D03*
X127000000Y-89300000D03*
X128987851Y-78700000D03*
X201500000Y-130000000D03*
X196500000Y-130000000D03*
X131500000Y-130000000D03*
X186500000Y-110000000D03*
X146500000Y-100000000D03*
X129000000Y-88300000D03*
X161500000Y-115000000D03*
X181500000Y-100000000D03*
X201500000Y-140000000D03*
X186500000Y-130000000D03*
X176500000Y-120000000D03*
X191500000Y-115000000D03*
X156500000Y-85000000D03*
X191500000Y-130000000D03*
X176500000Y-110000000D03*
X129987851Y-76699013D03*
X166500000Y-75000000D03*
X127000000Y-90300000D03*
X141500000Y-130000000D03*
X146500000Y-120000000D03*
X176500000Y-100000000D03*
X126500000Y-110000000D03*
X126500000Y-75000000D03*
X161500000Y-85000000D03*
X191500000Y-120000000D03*
X196500000Y-105000000D03*
X127987851Y-78700000D03*
X129000000Y-90300000D03*
X126000000Y-87300000D03*
X166500000Y-125000000D03*
X176500000Y-90000000D03*
X131500000Y-120000000D03*
X196500000Y-120000000D03*
X161500000Y-75000000D03*
X191500000Y-135000000D03*
X125987851Y-78700000D03*
X181500000Y-85000000D03*
X196500000Y-140000000D03*
X161500000Y-140000000D03*
X129000000Y-83500000D03*
X151500000Y-120000000D03*
X130000000Y-77699013D03*
X146500000Y-85000000D03*
X156500000Y-90000000D03*
X191500000Y-80000000D03*
X191500000Y-125000000D03*
X166500000Y-105000000D03*
X126500000Y-105000000D03*
X156500000Y-140000000D03*
X151500000Y-85000000D03*
X129000000Y-89300000D03*
X126500000Y-115000000D03*
X161500000Y-95000000D03*
X126500000Y-120000000D03*
X131500000Y-135000000D03*
X161500000Y-125000000D03*
X131500000Y-90000000D03*
X128000000Y-89300000D03*
X127000000Y-79700000D03*
X181500000Y-135000000D03*
X151500000Y-90000000D03*
X176500000Y-125000000D03*
X131500000Y-115000000D03*
X141500000Y-75000000D03*
X151500000Y-75000000D03*
X136500000Y-75000000D03*
X128000000Y-88300000D03*
X161500000Y-110000000D03*
X166500000Y-120000000D03*
X191500000Y-75000000D03*
X171500000Y-80000000D03*
X146500000Y-90000000D03*
X191500000Y-110000000D03*
X161500000Y-120000000D03*
X151500000Y-130000000D03*
X196500000Y-80000000D03*
X128100000Y-83500000D03*
X181500000Y-90000000D03*
X161500000Y-100000000D03*
X136500000Y-110000000D03*
X141500000Y-105000000D03*
X186500000Y-125000000D03*
X191500000Y-85000000D03*
X181500000Y-80000000D03*
X166500000Y-140000000D03*
X156500000Y-75000000D03*
X201500000Y-105000000D03*
X201500000Y-75000000D03*
X191500000Y-140000000D03*
X151500000Y-95000000D03*
X171500000Y-140000000D03*
X126500000Y-135000000D03*
X126000000Y-77700000D03*
X176500000Y-95000000D03*
X127987851Y-76700000D03*
X131500000Y-140000000D03*
X171500000Y-100000000D03*
X136500000Y-130000000D03*
X171500000Y-130000000D03*
X171500000Y-85000000D03*
X126000000Y-89300000D03*
X171500000Y-115000000D03*
X146500000Y-125000000D03*
X171500000Y-105000000D03*
X146500000Y-110000000D03*
X126000000Y-79700000D03*
X146500000Y-95000000D03*
X146500000Y-105000000D03*
X181500000Y-140000000D03*
X166500000Y-90000000D03*
X186500000Y-135000000D03*
X186500000Y-140000000D03*
X201500000Y-70000000D03*
X196500000Y-90000000D03*
X156500000Y-80000000D03*
%TO.N,/BATT_VOLTAGE*%
X151282456Y-47282456D03*
X149900000Y-48900000D03*
%TO.N,/~{LED_EN}*%
X134600000Y-46300000D03*
X132100000Y-46400000D03*
%TO.N,Net-(D11-Pad1)*%
X123500000Y-73000000D03*
X137500000Y-73000000D03*
%TD*%
D14*
%TO.N,+BATT*%
X169200000Y-45960490D02*
X169200000Y-56929511D01*
D15*
X158989511Y-46600000D02*
X158989511Y-43200000D01*
D14*
X164024511Y-40785001D02*
X169200000Y-45960490D01*
X169200000Y-56929511D02*
X166989511Y-59140000D01*
%TO.N,/MISO*%
X160985001Y-57885001D02*
X159200000Y-56100000D01*
X165704510Y-57885001D02*
X160985001Y-57885001D01*
X166989511Y-56600000D02*
X165704510Y-57885001D01*
D15*
%TO.N,/~{CHARGING}*%
X145262740Y-51262740D02*
X148362740Y-51262740D01*
X148362740Y-51262740D02*
X148400000Y-51300000D01*
D14*
%TO.N,/CHARLIE_2*%
X191072500Y-31127500D02*
X191072500Y-32900000D01*
X191100000Y-31100000D02*
X191072500Y-31127500D01*
D15*
%TO.N,/LED_PWM*%
X154789511Y-50600000D02*
X154789511Y-49100000D01*
X133800000Y-66600000D02*
X141100000Y-66600000D01*
%TO.N,/BATT_VOLTAGE*%
X149900000Y-48900000D02*
X151282456Y-47517544D01*
X151282456Y-47517544D02*
X151282456Y-47282456D01*
%TO.N,/~{LED_EN}*%
X134500000Y-46400000D02*
X134600000Y-46300000D01*
X132100000Y-46400000D02*
X134500000Y-46400000D01*
D14*
%TO.N,Net-(D11-Pad1)*%
X137500000Y-73000000D02*
X123500000Y-73000000D01*
%TD*%
%TA.AperFunction,Conductor*%
%TO.N,GND*%
G36*
X202646288Y-22218954D02*
G01*
X202727070Y-22272930D01*
X202781046Y-22353712D01*
X202800000Y-22449000D01*
X202800000Y-73267513D01*
X202781046Y-73362801D01*
X202727070Y-73443583D01*
X202646288Y-73497559D01*
X202551000Y-73516513D01*
X202509199Y-73512019D01*
X202509119Y-73512577D01*
X202374801Y-73493265D01*
X202374796Y-73493265D01*
X202366000Y-73492000D01*
X138343127Y-73492000D01*
X138247839Y-73473046D01*
X138167057Y-73419070D01*
X138113081Y-73338288D01*
X138094127Y-73243000D01*
X138102611Y-73178557D01*
X138103028Y-73177001D01*
X138108624Y-73163080D01*
X138129956Y-73013196D01*
X138130094Y-73000000D01*
X138111906Y-72849701D01*
X138058392Y-72708080D01*
X138029567Y-72666139D01*
X137981141Y-72595679D01*
X137981138Y-72595676D01*
X137972640Y-72583311D01*
X137859603Y-72482599D01*
X137789162Y-72445303D01*
X137739070Y-72418780D01*
X137739067Y-72418779D01*
X137725805Y-72411757D01*
X137578972Y-72374874D01*
X137503275Y-72374478D01*
X137442584Y-72374160D01*
X137442580Y-72374160D01*
X137427579Y-72374082D01*
X137412989Y-72377585D01*
X137412986Y-72377585D01*
X137294961Y-72405920D01*
X137294958Y-72405921D01*
X137280367Y-72409424D01*
X137145835Y-72478861D01*
X137134527Y-72488726D01*
X137134525Y-72488727D01*
X137077886Y-72538137D01*
X136993620Y-72586494D01*
X136914199Y-72599500D01*
X124085645Y-72599500D01*
X123990357Y-72580546D01*
X123920006Y-72536416D01*
X123859603Y-72482599D01*
X123789162Y-72445303D01*
X123739070Y-72418780D01*
X123739067Y-72418779D01*
X123725805Y-72411757D01*
X123578972Y-72374874D01*
X123503275Y-72374478D01*
X123442584Y-72374160D01*
X123442580Y-72374160D01*
X123427579Y-72374082D01*
X123412989Y-72377585D01*
X123412986Y-72377585D01*
X123294961Y-72405920D01*
X123294958Y-72405921D01*
X123280367Y-72409424D01*
X123145835Y-72478861D01*
X123134527Y-72488726D01*
X123134525Y-72488727D01*
X123079861Y-72536414D01*
X123031749Y-72578385D01*
X123023115Y-72590670D01*
X123023114Y-72590671D01*
X123016909Y-72599500D01*
X122944696Y-72702249D01*
X122939242Y-72716239D01*
X122939241Y-72716240D01*
X122936949Y-72722120D01*
X122889702Y-72843302D01*
X122869941Y-72993402D01*
X122886554Y-73143883D01*
X122891711Y-73157976D01*
X122891712Y-73157979D01*
X122931796Y-73267513D01*
X122938582Y-73286057D01*
X123023022Y-73411716D01*
X123034125Y-73421819D01*
X123117362Y-73497559D01*
X123134998Y-73513607D01*
X123268047Y-73585847D01*
X123334697Y-73603332D01*
X123399962Y-73620454D01*
X123399964Y-73620454D01*
X123414486Y-73624264D01*
X123429500Y-73624500D01*
X123429501Y-73624500D01*
X123471897Y-73625166D01*
X123565863Y-73626642D01*
X123580488Y-73623292D01*
X123580492Y-73623292D01*
X123657576Y-73605637D01*
X123713437Y-73592843D01*
X123848689Y-73524819D01*
X123880606Y-73497559D01*
X123924394Y-73460160D01*
X124009161Y-73412687D01*
X124086108Y-73400500D01*
X124885617Y-73400500D01*
X124980905Y-73419454D01*
X125061687Y-73473430D01*
X125115663Y-73554212D01*
X125134617Y-73649500D01*
X125115663Y-73744788D01*
X125099980Y-73774769D01*
X125092645Y-73783234D01*
X125032579Y-73914760D01*
X125012577Y-73982881D01*
X124992000Y-74126000D01*
X124992000Y-144366000D01*
X125003609Y-144473980D01*
X125005024Y-144480484D01*
X125005024Y-144480485D01*
X125008850Y-144498072D01*
X125010583Y-144595212D01*
X124975012Y-144685620D01*
X124907549Y-144755534D01*
X124818468Y-144794310D01*
X124765540Y-144800000D01*
X50449000Y-144800000D01*
X50353712Y-144781046D01*
X50272930Y-144727070D01*
X50218954Y-144646288D01*
X50200000Y-144551000D01*
X50200000Y-86863801D01*
X116000998Y-86863801D01*
X116013562Y-86882185D01*
X116023371Y-86891592D01*
X116031876Y-86899038D01*
X116343023Y-87147423D01*
X116352148Y-87154052D01*
X116684524Y-87373214D01*
X116694226Y-87378998D01*
X117045102Y-87567136D01*
X117055274Y-87572009D01*
X117421765Y-87727575D01*
X117432337Y-87731507D01*
X117811401Y-87853211D01*
X117822310Y-87856175D01*
X118210840Y-87943022D01*
X118221965Y-87944983D01*
X118616770Y-87996260D01*
X118628032Y-87997205D01*
X119025852Y-88012488D01*
X119037147Y-88012409D01*
X119434733Y-87991573D01*
X119445972Y-87990470D01*
X119840024Y-87933687D01*
X119851111Y-87931572D01*
X120238406Y-87839305D01*
X120249256Y-87836194D01*
X120626586Y-87709208D01*
X120637115Y-87705125D01*
X121001382Y-87544463D01*
X121011508Y-87539436D01*
X121359697Y-87346432D01*
X121369335Y-87340503D01*
X121698604Y-87116733D01*
X121707647Y-87109968D01*
X121986881Y-86880603D01*
X122000103Y-86864478D01*
X121994158Y-86853368D01*
X119017341Y-83876551D01*
X119000000Y-83864964D01*
X118982659Y-83876551D01*
X116012252Y-86846958D01*
X116000998Y-86863801D01*
X50200000Y-86863801D01*
X50200000Y-83651850D01*
X114489993Y-83651850D01*
X114490386Y-83663117D01*
X114522317Y-84059976D01*
X114523731Y-84071168D01*
X114591497Y-84463494D01*
X114593921Y-84474517D01*
X114696970Y-84859100D01*
X114700372Y-84869826D01*
X114837848Y-85243475D01*
X114842232Y-85253904D01*
X115012997Y-85613534D01*
X115018295Y-85623498D01*
X115220966Y-85966198D01*
X115227134Y-85975623D01*
X115460041Y-86298557D01*
X115467037Y-86307382D01*
X115621323Y-86484868D01*
X115637814Y-86497636D01*
X115650278Y-86490512D01*
X118623449Y-83517341D01*
X118635036Y-83500000D01*
X119364964Y-83500000D01*
X119376551Y-83517341D01*
X122346159Y-86486949D01*
X122363500Y-86498536D01*
X122374670Y-86491072D01*
X122571799Y-86257801D01*
X122578708Y-86248829D01*
X122807057Y-85922713D01*
X122813099Y-85913193D01*
X123010973Y-85567685D01*
X123016118Y-85557674D01*
X123181854Y-85195674D01*
X123186091Y-85185187D01*
X123318329Y-84809678D01*
X123321591Y-84798872D01*
X123419256Y-84412904D01*
X123421527Y-84401842D01*
X123483807Y-84008621D01*
X123485065Y-83997409D01*
X123511595Y-83597970D01*
X123511861Y-83591026D01*
X123512779Y-83503473D01*
X123512658Y-83496542D01*
X123494498Y-83096639D01*
X123493474Y-83085385D01*
X123439445Y-82690963D01*
X123437402Y-82679831D01*
X123347845Y-82291919D01*
X123344810Y-82281048D01*
X123220461Y-81902838D01*
X123216451Y-81892283D01*
X123058330Y-81526887D01*
X123053391Y-81516760D01*
X122862804Y-81167197D01*
X122856960Y-81157548D01*
X122635484Y-80826711D01*
X122628775Y-80817612D01*
X122379393Y-80509652D01*
X122365412Y-80500024D01*
X122347203Y-80512007D01*
X119376551Y-83482659D01*
X119364964Y-83500000D01*
X118635036Y-83500000D01*
X118623449Y-83482659D01*
X115654953Y-80514163D01*
X115637612Y-80502576D01*
X115624374Y-80511422D01*
X115526618Y-80619230D01*
X115519413Y-80627939D01*
X115279820Y-80945889D01*
X115273433Y-80955217D01*
X115063643Y-81293575D01*
X115058132Y-81303436D01*
X114879869Y-81659419D01*
X114875277Y-81669732D01*
X114730011Y-82040408D01*
X114726369Y-82051108D01*
X114615296Y-82433422D01*
X114612642Y-82444392D01*
X114536675Y-82835209D01*
X114535026Y-82846376D01*
X114494794Y-83242455D01*
X114494163Y-83253750D01*
X114489993Y-83651850D01*
X50200000Y-83651850D01*
X50200000Y-80137607D01*
X116002327Y-80137607D01*
X116010915Y-80151705D01*
X118982659Y-83123449D01*
X119000000Y-83135036D01*
X119017341Y-83123449D01*
X121986414Y-80154376D01*
X121998001Y-80137035D01*
X121990289Y-80125493D01*
X121782658Y-79947532D01*
X121773762Y-79940581D01*
X121449235Y-79709951D01*
X121439749Y-79703838D01*
X121095651Y-79503568D01*
X121085648Y-79498339D01*
X120724813Y-79330079D01*
X120714387Y-79325782D01*
X120339803Y-79190923D01*
X120329003Y-79187579D01*
X119943739Y-79087226D01*
X119932679Y-79084876D01*
X119539914Y-79019854D01*
X119528697Y-79018516D01*
X119131649Y-78989358D01*
X119120349Y-78989043D01*
X118722287Y-78995991D01*
X118711026Y-78996700D01*
X118315208Y-79039699D01*
X118304067Y-79041424D01*
X117913804Y-79120115D01*
X117902822Y-79122853D01*
X117521312Y-79236586D01*
X117510635Y-79240304D01*
X117140985Y-79388154D01*
X117130702Y-79392818D01*
X116775951Y-79573573D01*
X116766159Y-79579135D01*
X116429264Y-79791290D01*
X116419976Y-79797746D01*
X116103718Y-80039543D01*
X116095051Y-80046815D01*
X116014629Y-80120767D01*
X116002327Y-80137607D01*
X50200000Y-80137607D01*
X50200000Y-69993402D01*
X200869941Y-69993402D01*
X200886554Y-70143883D01*
X200891711Y-70157976D01*
X200891712Y-70157979D01*
X200898676Y-70177007D01*
X200938582Y-70286057D01*
X201023022Y-70411716D01*
X201134998Y-70513607D01*
X201268047Y-70585847D01*
X201334697Y-70603332D01*
X201399962Y-70620454D01*
X201399964Y-70620454D01*
X201414486Y-70624264D01*
X201429500Y-70624500D01*
X201429501Y-70624500D01*
X201471897Y-70625166D01*
X201565863Y-70626642D01*
X201580488Y-70623292D01*
X201580492Y-70623292D01*
X201657576Y-70605637D01*
X201713437Y-70592843D01*
X201848689Y-70524819D01*
X201963810Y-70426495D01*
X202052156Y-70303550D01*
X202075597Y-70245238D01*
X202103026Y-70177007D01*
X202103027Y-70177003D01*
X202108624Y-70163080D01*
X202129956Y-70013196D01*
X202130094Y-70000000D01*
X202111906Y-69849701D01*
X202058392Y-69708080D01*
X202029567Y-69666139D01*
X201981141Y-69595679D01*
X201981138Y-69595676D01*
X201972640Y-69583311D01*
X201859603Y-69482599D01*
X201789162Y-69445303D01*
X201739070Y-69418780D01*
X201739067Y-69418779D01*
X201725805Y-69411757D01*
X201578972Y-69374874D01*
X201503275Y-69374478D01*
X201442584Y-69374160D01*
X201442580Y-69374160D01*
X201427579Y-69374082D01*
X201412989Y-69377585D01*
X201412986Y-69377585D01*
X201294961Y-69405920D01*
X201294958Y-69405921D01*
X201280367Y-69409424D01*
X201145835Y-69478861D01*
X201134527Y-69488726D01*
X201134525Y-69488727D01*
X201043063Y-69568515D01*
X201031749Y-69578385D01*
X201023115Y-69590670D01*
X201023114Y-69590671D01*
X200988222Y-69640317D01*
X200944696Y-69702249D01*
X200939242Y-69716239D01*
X200939241Y-69716240D01*
X200936949Y-69722120D01*
X200889702Y-69843302D01*
X200869941Y-69993402D01*
X50200000Y-69993402D01*
X50200000Y-66593402D01*
X133169941Y-66593402D01*
X133186554Y-66743883D01*
X133191711Y-66757976D01*
X133191712Y-66757979D01*
X133198676Y-66777007D01*
X133238582Y-66886057D01*
X133323022Y-67011716D01*
X133434998Y-67113607D01*
X133568047Y-67185847D01*
X133634697Y-67203332D01*
X133699962Y-67220454D01*
X133699964Y-67220454D01*
X133714486Y-67224264D01*
X133729500Y-67224500D01*
X133729501Y-67224500D01*
X133771897Y-67225166D01*
X133865863Y-67226642D01*
X133880488Y-67223292D01*
X133880492Y-67223292D01*
X133957576Y-67205637D01*
X134013437Y-67192843D01*
X134148689Y-67124819D01*
X134263810Y-67026495D01*
X134279833Y-67004197D01*
X134350831Y-66937876D01*
X134441804Y-66903773D01*
X134482041Y-66900500D01*
X140415614Y-66900500D01*
X140510902Y-66919454D01*
X140591684Y-66973430D01*
X140604107Y-66988532D01*
X140604843Y-66987896D01*
X140614648Y-66999255D01*
X140623022Y-67011716D01*
X140734998Y-67113607D01*
X140868047Y-67185847D01*
X140934697Y-67203332D01*
X140999962Y-67220454D01*
X140999964Y-67220454D01*
X141014486Y-67224264D01*
X141029500Y-67224500D01*
X141029501Y-67224500D01*
X141071897Y-67225166D01*
X141165863Y-67226642D01*
X141180488Y-67223292D01*
X141180492Y-67223292D01*
X141257576Y-67205637D01*
X141313437Y-67192843D01*
X141448689Y-67124819D01*
X141563810Y-67026495D01*
X141652156Y-66903550D01*
X141675597Y-66845238D01*
X141703026Y-66777007D01*
X141703027Y-66777003D01*
X141708624Y-66763080D01*
X141729956Y-66613196D01*
X141730094Y-66600000D01*
X141711906Y-66449701D01*
X141658392Y-66308080D01*
X141625855Y-66260739D01*
X141581141Y-66195679D01*
X141581138Y-66195676D01*
X141572640Y-66183311D01*
X141459603Y-66082599D01*
X141389162Y-66045303D01*
X141339070Y-66018780D01*
X141339067Y-66018779D01*
X141325805Y-66011757D01*
X141178972Y-65974874D01*
X141103276Y-65974478D01*
X141042584Y-65974160D01*
X141042580Y-65974160D01*
X141027579Y-65974082D01*
X141012989Y-65977585D01*
X141012986Y-65977585D01*
X140894961Y-66005920D01*
X140894958Y-66005921D01*
X140880367Y-66009424D01*
X140745835Y-66078861D01*
X140734527Y-66088726D01*
X140734525Y-66088727D01*
X140643063Y-66168515D01*
X140631749Y-66178385D01*
X140623114Y-66190672D01*
X140621000Y-66193679D01*
X140616790Y-66197695D01*
X140613075Y-66201821D01*
X140612761Y-66201538D01*
X140550701Y-66260739D01*
X140460090Y-66295793D01*
X140417283Y-66299500D01*
X134483500Y-66299500D01*
X134388212Y-66280546D01*
X134307430Y-66226570D01*
X134291092Y-66206925D01*
X134291071Y-66206943D01*
X134281141Y-66195679D01*
X134272640Y-66183311D01*
X134159603Y-66082599D01*
X134089162Y-66045303D01*
X134039070Y-66018780D01*
X134039067Y-66018779D01*
X134025805Y-66011757D01*
X133878972Y-65974874D01*
X133803276Y-65974478D01*
X133742584Y-65974160D01*
X133742580Y-65974160D01*
X133727579Y-65974082D01*
X133712989Y-65977585D01*
X133712986Y-65977585D01*
X133594961Y-66005920D01*
X133594958Y-66005921D01*
X133580367Y-66009424D01*
X133445835Y-66078861D01*
X133434527Y-66088726D01*
X133434525Y-66088727D01*
X133343063Y-66168515D01*
X133331749Y-66178385D01*
X133323115Y-66190670D01*
X133323114Y-66190671D01*
X133315477Y-66201538D01*
X133244696Y-66302249D01*
X133239242Y-66316239D01*
X133239241Y-66316240D01*
X133236949Y-66322120D01*
X133189702Y-66443302D01*
X133169941Y-66593402D01*
X50200000Y-66593402D01*
X50200000Y-59404774D01*
X160577357Y-59404774D01*
X160577657Y-59407471D01*
X160606967Y-59537529D01*
X160613053Y-59556949D01*
X160689378Y-59744917D01*
X160698568Y-59763110D01*
X160804564Y-59936079D01*
X160816592Y-59952513D01*
X160949420Y-60105853D01*
X160963979Y-60120110D01*
X161120060Y-60249691D01*
X161136752Y-60261379D01*
X161311905Y-60363730D01*
X161330273Y-60372531D01*
X161519790Y-60444900D01*
X161539364Y-60450587D01*
X161631476Y-60469327D01*
X161652335Y-60469418D01*
X161655493Y-60461886D01*
X161655511Y-60461712D01*
X161655511Y-59418527D01*
X161651442Y-59398069D01*
X161630984Y-59394000D01*
X160599148Y-59394000D01*
X160578690Y-59398069D01*
X160577357Y-59404774D01*
X50200000Y-59404774D01*
X50200000Y-56093402D01*
X158569941Y-56093402D01*
X158586554Y-56243883D01*
X158591711Y-56257976D01*
X158591712Y-56257979D01*
X158632315Y-56368931D01*
X158638582Y-56386057D01*
X158723022Y-56511716D01*
X158834998Y-56613607D01*
X158968047Y-56685847D01*
X159114486Y-56724264D01*
X159129498Y-56724500D01*
X159129500Y-56724500D01*
X159149742Y-56724818D01*
X159159314Y-56724968D01*
X159254293Y-56745416D01*
X159331474Y-56797867D01*
X160691108Y-58157501D01*
X160745084Y-58238283D01*
X160764038Y-58333571D01*
X160745084Y-58428859D01*
X160731541Y-58456565D01*
X160720384Y-58476204D01*
X160634974Y-58660205D01*
X160627939Y-58679327D01*
X160574422Y-58872301D01*
X160575329Y-58882388D01*
X160586885Y-58886000D01*
X161914511Y-58886000D01*
X162009799Y-58904954D01*
X162090581Y-58958930D01*
X162144557Y-59039712D01*
X162163511Y-59135000D01*
X162163511Y-60452105D01*
X162167580Y-60472563D01*
X162178430Y-60474721D01*
X162182687Y-60474175D01*
X162202610Y-60469941D01*
X162396923Y-60411644D01*
X162415890Y-60404211D01*
X162598078Y-60314957D01*
X162615564Y-60304533D01*
X162780723Y-60186727D01*
X162796287Y-60173575D01*
X162939988Y-60030374D01*
X162953185Y-60014867D01*
X163071575Y-59850110D01*
X163082058Y-59832664D01*
X163130281Y-59735092D01*
X163189493Y-59658065D01*
X163273674Y-59609562D01*
X163370009Y-59596964D01*
X163463831Y-59622192D01*
X163540858Y-59681404D01*
X163558891Y-59705335D01*
X163562223Y-59711818D01*
X163569783Y-59721356D01*
X163569784Y-59721358D01*
X163598582Y-59757692D01*
X163690188Y-59873270D01*
X163847075Y-60006791D01*
X164026909Y-60107297D01*
X164222840Y-60170959D01*
X164234928Y-60172400D01*
X164234931Y-60172401D01*
X164355079Y-60186727D01*
X164427405Y-60195351D01*
X164632811Y-60179546D01*
X164701636Y-60160330D01*
X164819515Y-60127418D01*
X164819519Y-60127416D01*
X164831236Y-60124145D01*
X164842096Y-60118659D01*
X164842099Y-60118658D01*
X164921796Y-60078400D01*
X165015121Y-60031258D01*
X165024713Y-60023764D01*
X165024716Y-60023762D01*
X165167864Y-59911923D01*
X165167866Y-59911922D01*
X165177462Y-59904424D01*
X165312075Y-59748472D01*
X165332898Y-59711818D01*
X165407817Y-59579936D01*
X165407817Y-59579935D01*
X165413834Y-59569344D01*
X165478862Y-59373863D01*
X165479346Y-59370033D01*
X165517244Y-59285109D01*
X165587776Y-59218294D01*
X165678508Y-59183555D01*
X165775627Y-59186183D01*
X165864349Y-59225776D01*
X165931164Y-59296308D01*
X165959817Y-59360361D01*
X165973326Y-59407471D01*
X166008055Y-59528586D01*
X166013621Y-59539416D01*
X166013622Y-59539419D01*
X166074598Y-59658065D01*
X166102223Y-59711818D01*
X166230188Y-59873270D01*
X166387075Y-60006791D01*
X166566909Y-60107297D01*
X166762840Y-60170959D01*
X166774928Y-60172400D01*
X166774931Y-60172401D01*
X166895079Y-60186727D01*
X166967405Y-60195351D01*
X167172811Y-60179546D01*
X167241636Y-60160330D01*
X167359515Y-60127418D01*
X167359519Y-60127416D01*
X167371236Y-60124145D01*
X167382096Y-60118659D01*
X167382099Y-60118658D01*
X167461796Y-60078400D01*
X167555121Y-60031258D01*
X167564713Y-60023764D01*
X167564716Y-60023762D01*
X167707864Y-59911923D01*
X167707866Y-59911922D01*
X167717462Y-59904424D01*
X167852075Y-59748472D01*
X167872898Y-59711818D01*
X167947817Y-59579936D01*
X167947817Y-59579935D01*
X167953834Y-59569344D01*
X168018862Y-59373863D01*
X168044682Y-59169474D01*
X168045094Y-59140000D01*
X168024991Y-58934970D01*
X168006828Y-58874810D01*
X167997431Y-58778115D01*
X168025754Y-58685181D01*
X168069130Y-58626774D01*
X169505484Y-57190420D01*
X169505487Y-57190416D01*
X169528050Y-57167853D01*
X169536947Y-57150391D01*
X169541226Y-57144502D01*
X169546476Y-57135934D01*
X169549776Y-57129457D01*
X169561297Y-57113600D01*
X169567353Y-57094962D01*
X169570657Y-57088477D01*
X169574496Y-57079211D01*
X169576750Y-57072275D01*
X169585646Y-57054815D01*
X169588711Y-57035461D01*
X169590962Y-57028534D01*
X169593306Y-57018770D01*
X169594445Y-57011580D01*
X169600500Y-56992944D01*
X169600500Y-45897057D01*
X169594443Y-45878417D01*
X169593304Y-45871225D01*
X169590961Y-45861467D01*
X169588712Y-45854545D01*
X169585646Y-45835186D01*
X169576749Y-45817724D01*
X169574500Y-45810803D01*
X169570656Y-45801523D01*
X169567351Y-45795038D01*
X169561296Y-45776401D01*
X169549776Y-45760545D01*
X169546470Y-45754057D01*
X169541228Y-45745502D01*
X169536947Y-45739609D01*
X169528050Y-45722148D01*
X169505487Y-45699585D01*
X169505484Y-45699581D01*
X164724172Y-40918269D01*
X164670196Y-40837487D01*
X164653045Y-40772112D01*
X164638220Y-40649599D01*
X164638219Y-40649597D01*
X164636417Y-40634702D01*
X164582903Y-40493081D01*
X164554078Y-40451140D01*
X164505652Y-40380680D01*
X164505649Y-40380677D01*
X164497151Y-40368312D01*
X164384114Y-40267600D01*
X164313673Y-40230304D01*
X164263581Y-40203781D01*
X164263578Y-40203780D01*
X164250316Y-40196758D01*
X164103483Y-40159875D01*
X164027786Y-40159479D01*
X163967095Y-40159161D01*
X163967091Y-40159161D01*
X163952090Y-40159083D01*
X163937500Y-40162586D01*
X163937497Y-40162586D01*
X163819472Y-40190921D01*
X163819469Y-40190922D01*
X163804878Y-40194425D01*
X163670346Y-40263862D01*
X163659038Y-40273727D01*
X163659036Y-40273728D01*
X163567574Y-40353516D01*
X163556260Y-40363386D01*
X163547626Y-40375671D01*
X163547625Y-40375672D01*
X163512733Y-40425318D01*
X163469207Y-40487250D01*
X163463753Y-40501240D01*
X163463752Y-40501241D01*
X163461460Y-40507121D01*
X163414213Y-40628303D01*
X163394452Y-40778403D01*
X163411065Y-40928884D01*
X163463093Y-41071058D01*
X163547533Y-41196717D01*
X163659509Y-41298608D01*
X163792558Y-41370848D01*
X163938997Y-41409265D01*
X163954009Y-41409501D01*
X163954011Y-41409501D01*
X163974253Y-41409819D01*
X163983825Y-41409969D01*
X164078804Y-41430417D01*
X164155985Y-41482868D01*
X168726570Y-46053453D01*
X168780546Y-46134235D01*
X168799500Y-46229523D01*
X168799500Y-56660478D01*
X168780546Y-56755766D01*
X168726570Y-56836548D01*
X168465081Y-57098037D01*
X168384299Y-57152013D01*
X168289011Y-57170967D01*
X168193723Y-57152013D01*
X168112941Y-57098037D01*
X168058965Y-57017255D01*
X168040011Y-56921967D01*
X168040011Y-55730252D01*
X168036198Y-55711080D01*
X168033162Y-55695819D01*
X168033162Y-55695818D01*
X168028378Y-55671769D01*
X167984063Y-55605448D01*
X167917742Y-55561133D01*
X167893693Y-55556349D01*
X167893692Y-55556349D01*
X167871250Y-55551885D01*
X167871248Y-55551885D01*
X167859259Y-55549500D01*
X166119763Y-55549500D01*
X166107774Y-55551885D01*
X166107772Y-55551885D01*
X166085330Y-55556349D01*
X166085329Y-55556349D01*
X166061280Y-55561133D01*
X165994959Y-55605448D01*
X165950644Y-55671769D01*
X165945860Y-55695818D01*
X165945860Y-55695819D01*
X165942825Y-55711080D01*
X165939011Y-55730252D01*
X165939011Y-56212535D01*
X165920057Y-56307823D01*
X165866081Y-56388605D01*
X165785299Y-56442581D01*
X165690011Y-56461535D01*
X165594723Y-56442581D01*
X165513941Y-56388605D01*
X165459965Y-56307823D01*
X165451639Y-56284504D01*
X165428968Y-56209415D01*
X165428967Y-56209412D01*
X165425446Y-56197749D01*
X165401380Y-56152486D01*
X165334449Y-56026607D01*
X165328729Y-56015849D01*
X165198522Y-55856200D01*
X165157327Y-55822120D01*
X165118455Y-55789963D01*
X165039786Y-55724882D01*
X164962902Y-55683311D01*
X164869275Y-55632687D01*
X164869272Y-55632686D01*
X164858566Y-55626897D01*
X164829311Y-55617841D01*
X164673402Y-55569579D01*
X164673400Y-55569579D01*
X164661765Y-55565977D01*
X164456880Y-55544443D01*
X164251714Y-55563114D01*
X164054083Y-55621280D01*
X163871513Y-55716726D01*
X163710958Y-55845815D01*
X163578535Y-56003630D01*
X163572671Y-56014296D01*
X163572670Y-56014298D01*
X163525555Y-56100000D01*
X163479287Y-56184162D01*
X163475609Y-56195756D01*
X163475607Y-56195761D01*
X163416995Y-56380532D01*
X163414181Y-56379639D01*
X163384187Y-56449467D01*
X163314599Y-56517266D01*
X163224363Y-56553274D01*
X163127217Y-56552010D01*
X163037949Y-56513665D01*
X162970150Y-56444077D01*
X162940597Y-56380417D01*
X162940362Y-56379639D01*
X162885446Y-56197749D01*
X162861380Y-56152486D01*
X162794449Y-56026607D01*
X162788729Y-56015849D01*
X162658522Y-55856200D01*
X162617327Y-55822120D01*
X162578455Y-55789963D01*
X162499786Y-55724882D01*
X162422902Y-55683311D01*
X162329275Y-55632687D01*
X162329272Y-55632686D01*
X162318566Y-55626897D01*
X162289311Y-55617841D01*
X162133402Y-55569579D01*
X162133400Y-55569579D01*
X162121765Y-55565977D01*
X161916880Y-55544443D01*
X161711714Y-55563114D01*
X161514083Y-55621280D01*
X161331513Y-55716726D01*
X161170958Y-55845815D01*
X161038535Y-56003630D01*
X161032671Y-56014296D01*
X161032670Y-56014298D01*
X160985555Y-56100000D01*
X160939287Y-56184162D01*
X160935609Y-56195756D01*
X160935607Y-56195761D01*
X160880675Y-56368931D01*
X160876995Y-56380532D01*
X160854031Y-56585262D01*
X160854696Y-56593180D01*
X160834854Y-56686123D01*
X160779754Y-56766142D01*
X160698226Y-56818984D01*
X160602682Y-56836605D01*
X160507668Y-56816321D01*
X160430092Y-56763699D01*
X159899661Y-56233268D01*
X159845685Y-56152486D01*
X159828534Y-56087111D01*
X159813709Y-55964598D01*
X159813708Y-55964596D01*
X159811906Y-55949701D01*
X159758392Y-55808080D01*
X159704902Y-55730252D01*
X159681141Y-55695679D01*
X159681138Y-55695676D01*
X159672640Y-55683311D01*
X159559603Y-55582599D01*
X159487538Y-55544443D01*
X159439070Y-55518780D01*
X159439067Y-55518779D01*
X159425805Y-55511757D01*
X159278972Y-55474874D01*
X159203275Y-55474478D01*
X159142584Y-55474160D01*
X159142580Y-55474160D01*
X159127579Y-55474082D01*
X159112989Y-55477585D01*
X159112986Y-55477585D01*
X158994961Y-55505920D01*
X158994958Y-55505921D01*
X158980367Y-55509424D01*
X158845835Y-55578861D01*
X158834527Y-55588726D01*
X158834525Y-55588727D01*
X158784133Y-55632687D01*
X158731749Y-55678385D01*
X158723115Y-55690670D01*
X158723114Y-55690671D01*
X158703724Y-55718261D01*
X158644696Y-55802249D01*
X158639242Y-55816239D01*
X158639241Y-55816240D01*
X158636949Y-55822120D01*
X158589702Y-55943302D01*
X158569941Y-56093402D01*
X50200000Y-56093402D01*
X50200000Y-51256142D01*
X144632681Y-51256142D01*
X144649294Y-51406623D01*
X144654451Y-51420716D01*
X144654452Y-51420719D01*
X144675051Y-51477007D01*
X144701322Y-51548797D01*
X144785762Y-51674456D01*
X144897738Y-51776347D01*
X145030787Y-51848587D01*
X145097437Y-51866072D01*
X145162702Y-51883194D01*
X145162704Y-51883194D01*
X145177226Y-51887004D01*
X145192240Y-51887240D01*
X145192241Y-51887240D01*
X145234637Y-51887906D01*
X145328603Y-51889382D01*
X145343228Y-51886032D01*
X145343232Y-51886032D01*
X145420316Y-51868377D01*
X145476177Y-51855583D01*
X145611429Y-51787559D01*
X145726550Y-51689235D01*
X145742573Y-51666937D01*
X145813571Y-51600616D01*
X145904544Y-51566513D01*
X145944781Y-51563240D01*
X147690575Y-51563240D01*
X147785863Y-51582194D01*
X147866645Y-51636170D01*
X147897247Y-51673360D01*
X147897984Y-51674456D01*
X147923022Y-51711716D01*
X147934125Y-51721819D01*
X148013786Y-51794305D01*
X148034998Y-51813607D01*
X148168047Y-51885847D01*
X148234697Y-51903332D01*
X148299962Y-51920454D01*
X148299964Y-51920454D01*
X148314486Y-51924264D01*
X148329500Y-51924500D01*
X148329501Y-51924500D01*
X148371897Y-51925166D01*
X148465863Y-51926642D01*
X148480488Y-51923292D01*
X148480492Y-51923292D01*
X148557576Y-51905637D01*
X148613437Y-51892843D01*
X148748689Y-51824819D01*
X148863810Y-51726495D01*
X148952156Y-51603550D01*
X148979831Y-51534706D01*
X149003026Y-51477007D01*
X149003027Y-51477003D01*
X149008624Y-51463080D01*
X149029956Y-51313196D01*
X149030094Y-51300000D01*
X149020929Y-51224264D01*
X149013709Y-51164597D01*
X149013708Y-51164594D01*
X149011906Y-51149701D01*
X148958392Y-51008080D01*
X148910216Y-50937984D01*
X148881141Y-50895679D01*
X148881138Y-50895676D01*
X148872640Y-50883311D01*
X148759603Y-50782599D01*
X148658296Y-50728960D01*
X148639070Y-50718780D01*
X148639067Y-50718779D01*
X148625805Y-50711757D01*
X148478972Y-50674874D01*
X148403276Y-50674478D01*
X148342584Y-50674160D01*
X148342580Y-50674160D01*
X148327579Y-50674082D01*
X148312989Y-50677585D01*
X148312986Y-50677585D01*
X148194961Y-50705920D01*
X148194958Y-50705921D01*
X148180367Y-50709424D01*
X148045835Y-50778861D01*
X148034527Y-50788726D01*
X148034525Y-50788727D01*
X147985775Y-50831255D01*
X147931749Y-50878385D01*
X147928357Y-50883211D01*
X147855007Y-50937984D01*
X147760841Y-50961899D01*
X147747810Y-50962240D01*
X145946240Y-50962240D01*
X145850952Y-50943286D01*
X145770170Y-50889310D01*
X145753832Y-50869665D01*
X145753811Y-50869683D01*
X145743881Y-50858419D01*
X145735380Y-50846051D01*
X145622343Y-50745339D01*
X145547893Y-50705920D01*
X145501810Y-50681520D01*
X145501807Y-50681519D01*
X145488545Y-50674497D01*
X145341712Y-50637614D01*
X145266016Y-50637218D01*
X145205324Y-50636900D01*
X145205320Y-50636900D01*
X145190319Y-50636822D01*
X145175729Y-50640325D01*
X145175726Y-50640325D01*
X145057701Y-50668660D01*
X145057698Y-50668661D01*
X145043107Y-50672164D01*
X144908575Y-50741601D01*
X144897267Y-50751466D01*
X144897265Y-50751467D01*
X144850130Y-50792586D01*
X144794489Y-50841125D01*
X144785855Y-50853410D01*
X144785854Y-50853411D01*
X144771857Y-50873327D01*
X144707436Y-50964989D01*
X144701982Y-50978979D01*
X144701981Y-50978980D01*
X144679656Y-51036242D01*
X144652442Y-51106042D01*
X144632681Y-51256142D01*
X50200000Y-51256142D01*
X50200000Y-50593402D01*
X154159452Y-50593402D01*
X154176065Y-50743883D01*
X154181222Y-50757976D01*
X154181223Y-50757979D01*
X154193888Y-50792586D01*
X154228093Y-50886057D01*
X154312533Y-51011716D01*
X154323636Y-51021819D01*
X154400821Y-51092052D01*
X154424509Y-51113607D01*
X154557558Y-51185847D01*
X154624208Y-51203332D01*
X154689473Y-51220454D01*
X154689475Y-51220454D01*
X154703997Y-51224264D01*
X154719011Y-51224500D01*
X154719012Y-51224500D01*
X154761408Y-51225166D01*
X154855374Y-51226642D01*
X154869999Y-51223292D01*
X154870003Y-51223292D01*
X154947087Y-51205637D01*
X155002948Y-51192843D01*
X155138200Y-51124819D01*
X155253321Y-51026495D01*
X155341667Y-50903550D01*
X155386274Y-50792586D01*
X155392537Y-50777007D01*
X155392538Y-50777003D01*
X155398135Y-50763080D01*
X155404792Y-50716307D01*
X155418319Y-50621265D01*
X155418319Y-50621259D01*
X155419467Y-50613196D01*
X155419605Y-50600000D01*
X155401417Y-50449701D01*
X155347903Y-50308080D01*
X155319078Y-50266139D01*
X155270652Y-50195679D01*
X155270649Y-50195676D01*
X155262151Y-50183311D01*
X155173367Y-50104207D01*
X155114832Y-50026668D01*
X155090424Y-49932629D01*
X155090011Y-49918296D01*
X155090011Y-49780767D01*
X155108965Y-49685479D01*
X155162941Y-49604697D01*
X155177296Y-49591428D01*
X155241908Y-49536243D01*
X155241909Y-49536242D01*
X155253321Y-49526495D01*
X155341667Y-49403550D01*
X155372643Y-49326495D01*
X155392537Y-49277007D01*
X155392538Y-49277003D01*
X155398135Y-49263080D01*
X155419467Y-49113196D01*
X155419605Y-49100000D01*
X155401417Y-48949701D01*
X155347903Y-48808080D01*
X155289506Y-48723112D01*
X155270652Y-48695679D01*
X155270649Y-48695676D01*
X155262151Y-48683311D01*
X155149114Y-48582599D01*
X155078673Y-48545303D01*
X155028581Y-48518780D01*
X155028578Y-48518779D01*
X155015316Y-48511757D01*
X154868483Y-48474874D01*
X154792787Y-48474478D01*
X154732095Y-48474160D01*
X154732091Y-48474160D01*
X154717090Y-48474082D01*
X154702500Y-48477585D01*
X154702497Y-48477585D01*
X154584472Y-48505920D01*
X154584469Y-48505921D01*
X154569878Y-48509424D01*
X154435346Y-48578861D01*
X154424038Y-48588726D01*
X154424036Y-48588727D01*
X154375194Y-48631335D01*
X154321260Y-48678385D01*
X154312626Y-48690670D01*
X154312625Y-48690671D01*
X154289825Y-48723112D01*
X154234207Y-48802249D01*
X154228753Y-48816239D01*
X154228752Y-48816240D01*
X154187805Y-48921265D01*
X154179213Y-48943302D01*
X154159452Y-49093402D01*
X154176065Y-49243883D01*
X154181222Y-49257976D01*
X154181223Y-49257979D01*
X154206297Y-49326495D01*
X154228093Y-49386057D01*
X154312533Y-49511716D01*
X154323635Y-49521818D01*
X154323640Y-49521824D01*
X154407592Y-49598215D01*
X154465314Y-49676364D01*
X154488735Y-49770654D01*
X154489011Y-49782382D01*
X154489011Y-49918832D01*
X154470057Y-50014120D01*
X154416081Y-50094902D01*
X154403698Y-50106468D01*
X154332579Y-50168510D01*
X154332576Y-50168514D01*
X154321260Y-50178385D01*
X154312626Y-50190670D01*
X154312625Y-50190671D01*
X154277734Y-50240317D01*
X154234207Y-50302249D01*
X154228753Y-50316239D01*
X154228752Y-50316240D01*
X154226460Y-50322120D01*
X154179213Y-50443302D01*
X154159452Y-50593402D01*
X50200000Y-50593402D01*
X50200000Y-48893402D01*
X149269941Y-48893402D01*
X149286554Y-49043883D01*
X149291711Y-49057976D01*
X149291712Y-49057979D01*
X149314872Y-49121265D01*
X149338582Y-49186057D01*
X149423022Y-49311716D01*
X149534998Y-49413607D01*
X149668047Y-49485847D01*
X149719156Y-49499255D01*
X149799962Y-49520454D01*
X149799964Y-49520454D01*
X149814486Y-49524264D01*
X149829500Y-49524500D01*
X149829501Y-49524500D01*
X149871897Y-49525166D01*
X149965863Y-49526642D01*
X149980488Y-49523292D01*
X149980492Y-49523292D01*
X150057576Y-49505637D01*
X150113437Y-49492843D01*
X150248689Y-49424819D01*
X150363810Y-49326495D01*
X150452156Y-49203550D01*
X150488478Y-49113196D01*
X150503026Y-49077007D01*
X150503027Y-49077003D01*
X150508624Y-49063080D01*
X150513480Y-49028960D01*
X150528808Y-48921265D01*
X150528808Y-48921259D01*
X150529956Y-48913196D01*
X150530094Y-48900000D01*
X150522509Y-48837318D01*
X150529879Y-48740443D01*
X150573760Y-48653762D01*
X150593636Y-48631335D01*
X151255581Y-47969390D01*
X151336363Y-47915414D01*
X151376062Y-47902744D01*
X151377295Y-47902462D01*
X151495893Y-47875299D01*
X151631145Y-47807275D01*
X151746266Y-47708951D01*
X151834612Y-47586006D01*
X151858053Y-47527694D01*
X151885482Y-47459463D01*
X151885483Y-47459459D01*
X151891080Y-47445536D01*
X151912412Y-47295652D01*
X151912550Y-47282456D01*
X151894362Y-47132157D01*
X151840848Y-46990536D01*
X151796935Y-46926642D01*
X151763597Y-46878135D01*
X151763594Y-46878132D01*
X151755096Y-46865767D01*
X151642059Y-46765055D01*
X151555933Y-46719454D01*
X151521526Y-46701236D01*
X151521523Y-46701235D01*
X151508261Y-46694213D01*
X151361428Y-46657330D01*
X151285732Y-46656934D01*
X151225040Y-46656616D01*
X151225036Y-46656616D01*
X151210035Y-46656538D01*
X151195445Y-46660041D01*
X151195442Y-46660041D01*
X151077417Y-46688376D01*
X151077414Y-46688377D01*
X151062823Y-46691880D01*
X150928291Y-46761317D01*
X150916983Y-46771182D01*
X150916981Y-46771183D01*
X150842403Y-46836242D01*
X150814205Y-46860841D01*
X150805571Y-46873126D01*
X150805570Y-46873127D01*
X150789359Y-46896193D01*
X150727152Y-46984705D01*
X150721698Y-46998695D01*
X150721697Y-46998696D01*
X150707059Y-47036242D01*
X150672158Y-47125758D01*
X150652397Y-47275858D01*
X150669010Y-47426339D01*
X150674168Y-47440435D01*
X150674170Y-47440442D01*
X150689318Y-47481837D01*
X150704264Y-47577836D01*
X150681336Y-47672246D01*
X150631553Y-47743476D01*
X150171205Y-48203824D01*
X150090423Y-48257800D01*
X149995135Y-48276754D01*
X149983557Y-48276026D01*
X149978972Y-48274874D01*
X149918958Y-48274560D01*
X149842584Y-48274160D01*
X149842580Y-48274160D01*
X149827579Y-48274082D01*
X149812989Y-48277585D01*
X149812986Y-48277585D01*
X149694961Y-48305920D01*
X149694958Y-48305921D01*
X149680367Y-48309424D01*
X149545835Y-48378861D01*
X149431749Y-48478385D01*
X149344696Y-48602249D01*
X149339242Y-48616239D01*
X149339241Y-48616240D01*
X149297574Y-48723112D01*
X149289702Y-48743302D01*
X149287743Y-48758184D01*
X149287742Y-48758187D01*
X149279325Y-48822120D01*
X149269941Y-48893402D01*
X50200000Y-48893402D01*
X50200000Y-46393402D01*
X131469941Y-46393402D01*
X131486554Y-46543883D01*
X131491711Y-46557976D01*
X131491712Y-46557979D01*
X131529062Y-46660041D01*
X131538582Y-46686057D01*
X131623022Y-46811716D01*
X131734998Y-46913607D01*
X131868047Y-46985847D01*
X131917025Y-46998696D01*
X131999962Y-47020454D01*
X131999964Y-47020454D01*
X132014486Y-47024264D01*
X132029500Y-47024500D01*
X132029501Y-47024500D01*
X132071897Y-47025166D01*
X132165863Y-47026642D01*
X132180488Y-47023292D01*
X132180492Y-47023292D01*
X132262208Y-47004576D01*
X132313437Y-46992843D01*
X132448689Y-46924819D01*
X132563810Y-46826495D01*
X132579833Y-46804197D01*
X132650831Y-46737876D01*
X132741804Y-46703773D01*
X132782041Y-46700500D01*
X134014364Y-46700500D01*
X134109652Y-46719454D01*
X134181945Y-46765333D01*
X134223894Y-46803504D01*
X134223899Y-46803507D01*
X134234998Y-46813607D01*
X134368047Y-46885847D01*
X134416324Y-46898512D01*
X134499962Y-46920454D01*
X134499964Y-46920454D01*
X134514486Y-46924264D01*
X134529500Y-46924500D01*
X134529501Y-46924500D01*
X134571897Y-46925166D01*
X134665863Y-46926642D01*
X134680488Y-46923292D01*
X134680492Y-46923292D01*
X134766688Y-46903550D01*
X134813437Y-46892843D01*
X134948689Y-46824819D01*
X135063810Y-46726495D01*
X135152156Y-46603550D01*
X135156235Y-46593402D01*
X158359452Y-46593402D01*
X158376065Y-46743883D01*
X158381222Y-46757976D01*
X158381223Y-46757979D01*
X158408152Y-46831565D01*
X158428093Y-46886057D01*
X158512533Y-47011716D01*
X158624509Y-47113607D01*
X158757558Y-47185847D01*
X158824208Y-47203332D01*
X158889473Y-47220454D01*
X158889475Y-47220454D01*
X158903997Y-47224264D01*
X158919011Y-47224500D01*
X158919012Y-47224500D01*
X158961408Y-47225166D01*
X159055374Y-47226642D01*
X159069999Y-47223292D01*
X159070003Y-47223292D01*
X159147087Y-47205637D01*
X159202948Y-47192843D01*
X159338200Y-47124819D01*
X159453321Y-47026495D01*
X159541667Y-46903550D01*
X159568724Y-46836242D01*
X159592537Y-46777007D01*
X159592538Y-46777003D01*
X159598135Y-46763080D01*
X159607325Y-46698512D01*
X159618319Y-46621265D01*
X159618319Y-46621259D01*
X159619467Y-46613196D01*
X159619605Y-46600000D01*
X159611008Y-46528960D01*
X159603220Y-46464597D01*
X159603219Y-46464594D01*
X159601417Y-46449701D01*
X159547903Y-46308080D01*
X159493767Y-46229312D01*
X159470652Y-46195679D01*
X159470649Y-46195676D01*
X159462151Y-46183311D01*
X159373367Y-46104207D01*
X159314832Y-46026668D01*
X159290424Y-45932629D01*
X159290011Y-45918296D01*
X159290011Y-43880767D01*
X159308965Y-43785479D01*
X159362941Y-43704697D01*
X159377296Y-43691428D01*
X159441908Y-43636243D01*
X159441909Y-43636242D01*
X159453321Y-43626495D01*
X159541667Y-43503550D01*
X159565108Y-43445238D01*
X159592537Y-43377007D01*
X159592538Y-43377003D01*
X159598135Y-43363080D01*
X159619467Y-43213196D01*
X159619605Y-43200000D01*
X159601417Y-43049701D01*
X159547903Y-42908080D01*
X159519078Y-42866139D01*
X159470652Y-42795679D01*
X159470649Y-42795676D01*
X159462151Y-42783311D01*
X159349114Y-42682599D01*
X159278673Y-42645303D01*
X159228581Y-42618780D01*
X159228578Y-42618779D01*
X159215316Y-42611757D01*
X159068483Y-42574874D01*
X158992787Y-42574478D01*
X158932095Y-42574160D01*
X158932091Y-42574160D01*
X158917090Y-42574082D01*
X158902500Y-42577585D01*
X158902497Y-42577585D01*
X158784472Y-42605920D01*
X158784469Y-42605921D01*
X158769878Y-42609424D01*
X158635346Y-42678861D01*
X158624038Y-42688726D01*
X158624036Y-42688727D01*
X158532574Y-42768515D01*
X158521260Y-42778385D01*
X158512626Y-42790670D01*
X158512625Y-42790671D01*
X158477733Y-42840317D01*
X158434207Y-42902249D01*
X158428753Y-42916239D01*
X158428752Y-42916240D01*
X158426460Y-42922120D01*
X158379213Y-43043302D01*
X158359452Y-43193402D01*
X158376065Y-43343883D01*
X158381222Y-43357976D01*
X158381223Y-43357979D01*
X158388187Y-43377007D01*
X158428093Y-43486057D01*
X158512533Y-43611716D01*
X158523635Y-43621818D01*
X158523640Y-43621824D01*
X158607592Y-43698215D01*
X158665314Y-43776364D01*
X158688735Y-43870654D01*
X158689011Y-43882382D01*
X158689011Y-45918832D01*
X158670057Y-46014120D01*
X158616081Y-46094902D01*
X158603698Y-46106468D01*
X158532579Y-46168510D01*
X158532576Y-46168514D01*
X158521260Y-46178385D01*
X158512626Y-46190670D01*
X158512625Y-46190671D01*
X158485468Y-46229312D01*
X158434207Y-46302249D01*
X158428753Y-46316239D01*
X158428752Y-46316240D01*
X158426460Y-46322120D01*
X158379213Y-46443302D01*
X158377254Y-46458184D01*
X158377253Y-46458187D01*
X158367936Y-46528960D01*
X158359452Y-46593402D01*
X135156235Y-46593402D01*
X135182141Y-46528960D01*
X135203026Y-46477007D01*
X135203027Y-46477003D01*
X135208624Y-46463080D01*
X135213430Y-46429312D01*
X135228808Y-46321265D01*
X135228808Y-46321259D01*
X135229956Y-46313196D01*
X135230094Y-46300000D01*
X135216864Y-46190671D01*
X135213709Y-46164597D01*
X135213708Y-46164594D01*
X135211906Y-46149701D01*
X135158392Y-46008080D01*
X135106536Y-45932629D01*
X135081141Y-45895679D01*
X135081138Y-45895676D01*
X135072640Y-45883311D01*
X134959603Y-45782599D01*
X134889162Y-45745303D01*
X134839070Y-45718780D01*
X134839067Y-45718779D01*
X134825805Y-45711757D01*
X134678972Y-45674874D01*
X134603276Y-45674478D01*
X134542584Y-45674160D01*
X134542580Y-45674160D01*
X134527579Y-45674082D01*
X134512989Y-45677585D01*
X134512986Y-45677585D01*
X134394961Y-45705920D01*
X134394958Y-45705921D01*
X134380367Y-45709424D01*
X134245835Y-45778861D01*
X134234527Y-45788726D01*
X134234525Y-45788727D01*
X134151142Y-45861467D01*
X134131749Y-45878385D01*
X134123115Y-45890670D01*
X134123114Y-45890671D01*
X134050721Y-45993676D01*
X133980423Y-46060738D01*
X133889812Y-46095792D01*
X133847002Y-46099500D01*
X132783500Y-46099500D01*
X132688212Y-46080546D01*
X132607430Y-46026570D01*
X132591092Y-46006925D01*
X132591071Y-46006943D01*
X132581141Y-45995679D01*
X132572640Y-45983311D01*
X132459603Y-45882599D01*
X132370055Y-45835186D01*
X132339070Y-45818780D01*
X132339067Y-45818779D01*
X132325805Y-45811757D01*
X132178972Y-45774874D01*
X132103275Y-45774478D01*
X132042584Y-45774160D01*
X132042580Y-45774160D01*
X132027579Y-45774082D01*
X132012989Y-45777585D01*
X132012986Y-45777585D01*
X131894961Y-45805920D01*
X131894958Y-45805921D01*
X131880367Y-45809424D01*
X131745835Y-45878861D01*
X131734527Y-45888726D01*
X131734525Y-45888727D01*
X131684200Y-45932629D01*
X131631749Y-45978385D01*
X131623115Y-45990670D01*
X131623114Y-45990671D01*
X131597884Y-46026570D01*
X131544696Y-46102249D01*
X131539242Y-46116239D01*
X131539241Y-46116240D01*
X131520388Y-46164597D01*
X131489702Y-46243302D01*
X131487743Y-46258184D01*
X131487742Y-46258187D01*
X131479438Y-46321265D01*
X131469941Y-46393402D01*
X50200000Y-46393402D01*
X50200000Y-32893402D01*
X190442441Y-32893402D01*
X190459054Y-33043883D01*
X190464211Y-33057976D01*
X190464212Y-33057979D01*
X190471176Y-33077007D01*
X190511082Y-33186057D01*
X190595522Y-33311716D01*
X190707498Y-33413607D01*
X190840547Y-33485847D01*
X190907197Y-33503332D01*
X190972462Y-33520454D01*
X190972464Y-33520454D01*
X190986986Y-33524264D01*
X191002000Y-33524500D01*
X191002001Y-33524500D01*
X191044397Y-33525166D01*
X191138363Y-33526642D01*
X191152988Y-33523292D01*
X191152992Y-33523292D01*
X191230076Y-33505637D01*
X191285937Y-33492843D01*
X191421189Y-33424819D01*
X191536310Y-33326495D01*
X191624656Y-33203550D01*
X191648097Y-33145238D01*
X191675526Y-33077007D01*
X191675527Y-33077003D01*
X191681124Y-33063080D01*
X191702456Y-32913196D01*
X191702594Y-32900000D01*
X191684406Y-32749701D01*
X191630892Y-32608080D01*
X191545140Y-32483311D01*
X191534844Y-32474138D01*
X191486425Y-32390779D01*
X191473000Y-32310122D01*
X191473000Y-31718845D01*
X191491954Y-31623557D01*
X191542654Y-31547678D01*
X191542236Y-31547293D01*
X191544706Y-31544607D01*
X191545930Y-31542775D01*
X191548999Y-31539938D01*
X191552397Y-31536243D01*
X191563810Y-31526495D01*
X191652156Y-31403550D01*
X191675597Y-31345238D01*
X191703026Y-31277007D01*
X191703027Y-31277003D01*
X191708624Y-31263080D01*
X191729956Y-31113196D01*
X191730094Y-31100000D01*
X191711906Y-30949701D01*
X191658392Y-30808080D01*
X191629567Y-30766139D01*
X191581141Y-30695679D01*
X191581138Y-30695676D01*
X191572640Y-30683311D01*
X191459603Y-30582599D01*
X191389162Y-30545303D01*
X191339070Y-30518780D01*
X191339067Y-30518779D01*
X191325805Y-30511757D01*
X191178972Y-30474874D01*
X191103276Y-30474478D01*
X191042584Y-30474160D01*
X191042580Y-30474160D01*
X191027579Y-30474082D01*
X191012989Y-30477585D01*
X191012986Y-30477585D01*
X190894961Y-30505920D01*
X190894958Y-30505921D01*
X190880367Y-30509424D01*
X190745835Y-30578861D01*
X190734527Y-30588726D01*
X190734525Y-30588727D01*
X190643063Y-30668515D01*
X190631749Y-30678385D01*
X190623115Y-30690670D01*
X190623114Y-30690671D01*
X190588223Y-30740317D01*
X190544696Y-30802249D01*
X190539242Y-30816239D01*
X190539241Y-30816240D01*
X190536949Y-30822120D01*
X190489702Y-30943302D01*
X190469941Y-31093402D01*
X190486554Y-31243883D01*
X190491711Y-31257976D01*
X190491712Y-31257979D01*
X190498676Y-31277007D01*
X190538582Y-31386057D01*
X190550337Y-31403550D01*
X190623022Y-31511716D01*
X190621289Y-31512881D01*
X190659406Y-31580112D01*
X190672000Y-31658300D01*
X190672000Y-32310254D01*
X190653046Y-32405542D01*
X190610558Y-32472881D01*
X190604249Y-32478385D01*
X190517196Y-32602249D01*
X190511742Y-32616239D01*
X190511741Y-32616240D01*
X190509449Y-32622120D01*
X190462202Y-32743302D01*
X190442441Y-32893402D01*
X50200000Y-32893402D01*
X50200000Y-28724774D01*
X61667846Y-28724774D01*
X61668146Y-28727471D01*
X61697456Y-28857529D01*
X61703542Y-28876949D01*
X61779867Y-29064917D01*
X61789057Y-29083110D01*
X61895053Y-29256079D01*
X61907081Y-29272513D01*
X62039909Y-29425853D01*
X62054462Y-29440105D01*
X62165486Y-29532279D01*
X62226693Y-29607729D01*
X62254368Y-29700859D01*
X62244296Y-29797491D01*
X62198012Y-29882913D01*
X62122562Y-29944120D01*
X62101722Y-29953904D01*
X62095819Y-29956349D01*
X62071769Y-29961133D01*
X62005448Y-30005448D01*
X61961133Y-30071769D01*
X61949500Y-30130252D01*
X61949500Y-31869748D01*
X61961133Y-31928231D01*
X62005448Y-31994552D01*
X62071769Y-32038867D01*
X62095818Y-32043651D01*
X62095819Y-32043651D01*
X62118261Y-32048115D01*
X62118263Y-32048115D01*
X62130252Y-32050500D01*
X63869748Y-32050500D01*
X63881737Y-32048115D01*
X63881739Y-32048115D01*
X63904181Y-32043651D01*
X63904182Y-32043651D01*
X63928231Y-32038867D01*
X63994552Y-31994552D01*
X64038867Y-31928231D01*
X64050500Y-31869748D01*
X64050500Y-30130252D01*
X64038867Y-30071769D01*
X63994552Y-30005448D01*
X63928231Y-29961133D01*
X63904181Y-29956349D01*
X63899560Y-29954435D01*
X63818779Y-29900458D01*
X63764803Y-29819677D01*
X63745850Y-29724388D01*
X63764805Y-29629100D01*
X63818782Y-29548319D01*
X63850256Y-29521675D01*
X63871212Y-29506727D01*
X63886776Y-29493575D01*
X64030477Y-29350374D01*
X64043674Y-29334867D01*
X64162064Y-29170110D01*
X64172547Y-29152664D01*
X64262438Y-28970784D01*
X64269933Y-28951854D01*
X64328912Y-28757732D01*
X64333141Y-28738172D01*
X64332263Y-28724774D01*
X103667846Y-28724774D01*
X103668146Y-28727471D01*
X103697456Y-28857529D01*
X103703542Y-28876949D01*
X103779867Y-29064917D01*
X103789057Y-29083110D01*
X103895053Y-29256079D01*
X103907081Y-29272513D01*
X104039909Y-29425853D01*
X104054462Y-29440105D01*
X104165486Y-29532279D01*
X104226693Y-29607729D01*
X104254368Y-29700859D01*
X104244296Y-29797491D01*
X104198012Y-29882913D01*
X104122562Y-29944120D01*
X104101722Y-29953904D01*
X104095819Y-29956349D01*
X104071769Y-29961133D01*
X104005448Y-30005448D01*
X103961133Y-30071769D01*
X103949500Y-30130252D01*
X103949500Y-31869748D01*
X103961133Y-31928231D01*
X104005448Y-31994552D01*
X104071769Y-32038867D01*
X104095818Y-32043651D01*
X104095819Y-32043651D01*
X104118261Y-32048115D01*
X104118263Y-32048115D01*
X104130252Y-32050500D01*
X105869748Y-32050500D01*
X105881737Y-32048115D01*
X105881739Y-32048115D01*
X105904181Y-32043651D01*
X105904182Y-32043651D01*
X105928231Y-32038867D01*
X105994552Y-31994552D01*
X106038867Y-31928231D01*
X106050500Y-31869748D01*
X106050500Y-30130252D01*
X106038867Y-30071769D01*
X105994552Y-30005448D01*
X105928231Y-29961133D01*
X105904181Y-29956349D01*
X105899560Y-29954435D01*
X105818779Y-29900458D01*
X105764803Y-29819677D01*
X105745850Y-29724388D01*
X105764805Y-29629100D01*
X105818782Y-29548319D01*
X105850256Y-29521675D01*
X105871212Y-29506727D01*
X105886776Y-29493575D01*
X106030477Y-29350374D01*
X106043674Y-29334867D01*
X106162064Y-29170110D01*
X106172547Y-29152664D01*
X106262438Y-28970784D01*
X106269933Y-28951854D01*
X106328912Y-28757732D01*
X106333141Y-28738172D01*
X106332263Y-28724774D01*
X144667846Y-28724774D01*
X144668146Y-28727471D01*
X144697456Y-28857529D01*
X144703542Y-28876949D01*
X144779867Y-29064917D01*
X144789057Y-29083110D01*
X144895053Y-29256079D01*
X144907081Y-29272513D01*
X145039909Y-29425853D01*
X145054462Y-29440105D01*
X145165486Y-29532279D01*
X145226693Y-29607729D01*
X145254368Y-29700859D01*
X145244296Y-29797491D01*
X145198012Y-29882913D01*
X145122562Y-29944120D01*
X145101722Y-29953904D01*
X145095819Y-29956349D01*
X145071769Y-29961133D01*
X145005448Y-30005448D01*
X144961133Y-30071769D01*
X144949500Y-30130252D01*
X144949500Y-31869748D01*
X144961133Y-31928231D01*
X145005448Y-31994552D01*
X145071769Y-32038867D01*
X145095818Y-32043651D01*
X145095819Y-32043651D01*
X145118261Y-32048115D01*
X145118263Y-32048115D01*
X145130252Y-32050500D01*
X146869748Y-32050500D01*
X146881737Y-32048115D01*
X146881739Y-32048115D01*
X146904181Y-32043651D01*
X146904182Y-32043651D01*
X146928231Y-32038867D01*
X146994552Y-31994552D01*
X147038867Y-31928231D01*
X147050500Y-31869748D01*
X147050500Y-30130252D01*
X147038867Y-30071769D01*
X146994552Y-30005448D01*
X146928231Y-29961133D01*
X146904181Y-29956349D01*
X146899560Y-29954435D01*
X146818779Y-29900458D01*
X146764803Y-29819677D01*
X146745850Y-29724388D01*
X146764805Y-29629100D01*
X146818782Y-29548319D01*
X146850256Y-29521675D01*
X146871212Y-29506727D01*
X146886776Y-29493575D01*
X147030477Y-29350374D01*
X147043674Y-29334867D01*
X147162064Y-29170110D01*
X147172547Y-29152664D01*
X147262438Y-28970784D01*
X147269933Y-28951854D01*
X147328912Y-28757732D01*
X147333141Y-28738172D01*
X147331786Y-28717503D01*
X147321466Y-28714000D01*
X144689637Y-28714000D01*
X144669179Y-28718069D01*
X144667846Y-28724774D01*
X106332263Y-28724774D01*
X106331786Y-28717503D01*
X106321466Y-28714000D01*
X103689637Y-28714000D01*
X103669179Y-28718069D01*
X103667846Y-28724774D01*
X64332263Y-28724774D01*
X64331786Y-28717503D01*
X64321466Y-28714000D01*
X61689637Y-28714000D01*
X61669179Y-28718069D01*
X61667846Y-28724774D01*
X50200000Y-28724774D01*
X50200000Y-28192301D01*
X61664911Y-28192301D01*
X61665818Y-28202388D01*
X61677374Y-28206000D01*
X62721473Y-28206000D01*
X62741931Y-28201931D01*
X62746000Y-28181473D01*
X63254000Y-28181473D01*
X63258069Y-28201931D01*
X63278527Y-28206000D01*
X64311932Y-28206000D01*
X64332390Y-28201931D01*
X64333419Y-28196755D01*
X64332868Y-28192301D01*
X103664911Y-28192301D01*
X103665818Y-28202388D01*
X103677374Y-28206000D01*
X104721473Y-28206000D01*
X104741931Y-28201931D01*
X104746000Y-28181473D01*
X105254000Y-28181473D01*
X105258069Y-28201931D01*
X105278527Y-28206000D01*
X106311932Y-28206000D01*
X106332390Y-28201931D01*
X106333419Y-28196755D01*
X106332868Y-28192301D01*
X144664911Y-28192301D01*
X144665818Y-28202388D01*
X144677374Y-28206000D01*
X145721473Y-28206000D01*
X145741931Y-28201931D01*
X145746000Y-28181473D01*
X146254000Y-28181473D01*
X146258069Y-28201931D01*
X146278527Y-28206000D01*
X147311932Y-28206000D01*
X147332390Y-28201931D01*
X147333419Y-28196755D01*
X147332723Y-28191127D01*
X147292444Y-28030773D01*
X147285880Y-28011492D01*
X147204986Y-27825446D01*
X147195364Y-27807502D01*
X147085168Y-27637164D01*
X147072737Y-27621022D01*
X146936209Y-27470980D01*
X146921305Y-27457082D01*
X146762098Y-27331349D01*
X146745141Y-27320082D01*
X146567526Y-27222033D01*
X146548952Y-27213685D01*
X146357719Y-27145966D01*
X146338018Y-27140761D01*
X146278147Y-27130096D01*
X146257291Y-27130515D01*
X146254000Y-27138935D01*
X146254000Y-28181473D01*
X145746000Y-28181473D01*
X145746000Y-27149514D01*
X145741931Y-27129056D01*
X145732138Y-27127108D01*
X145694301Y-27132898D01*
X145674503Y-27137615D01*
X145481657Y-27200646D01*
X145462892Y-27208534D01*
X145282937Y-27302213D01*
X145265700Y-27313068D01*
X145103476Y-27434870D01*
X145088235Y-27448401D01*
X144948080Y-27595065D01*
X144935257Y-27610901D01*
X144820937Y-27778487D01*
X144810877Y-27796196D01*
X144725463Y-27980205D01*
X144718428Y-27999327D01*
X144664911Y-28192301D01*
X106332868Y-28192301D01*
X106332723Y-28191127D01*
X106292444Y-28030773D01*
X106285880Y-28011492D01*
X106204986Y-27825446D01*
X106195364Y-27807502D01*
X106085168Y-27637164D01*
X106072737Y-27621022D01*
X105936209Y-27470980D01*
X105921305Y-27457082D01*
X105762098Y-27331349D01*
X105745141Y-27320082D01*
X105567526Y-27222033D01*
X105548952Y-27213685D01*
X105357719Y-27145966D01*
X105338018Y-27140761D01*
X105278147Y-27130096D01*
X105257291Y-27130515D01*
X105254000Y-27138935D01*
X105254000Y-28181473D01*
X104746000Y-28181473D01*
X104746000Y-27149514D01*
X104741931Y-27129056D01*
X104732138Y-27127108D01*
X104694301Y-27132898D01*
X104674503Y-27137615D01*
X104481657Y-27200646D01*
X104462892Y-27208534D01*
X104282937Y-27302213D01*
X104265700Y-27313068D01*
X104103476Y-27434870D01*
X104088235Y-27448401D01*
X103948080Y-27595065D01*
X103935257Y-27610901D01*
X103820937Y-27778487D01*
X103810877Y-27796196D01*
X103725463Y-27980205D01*
X103718428Y-27999327D01*
X103664911Y-28192301D01*
X64332868Y-28192301D01*
X64332723Y-28191127D01*
X64292444Y-28030773D01*
X64285880Y-28011492D01*
X64204986Y-27825446D01*
X64195364Y-27807502D01*
X64085168Y-27637164D01*
X64072737Y-27621022D01*
X63936209Y-27470980D01*
X63921305Y-27457082D01*
X63762098Y-27331349D01*
X63745141Y-27320082D01*
X63567526Y-27222033D01*
X63548952Y-27213685D01*
X63357719Y-27145966D01*
X63338018Y-27140761D01*
X63278147Y-27130096D01*
X63257291Y-27130515D01*
X63254000Y-27138935D01*
X63254000Y-28181473D01*
X62746000Y-28181473D01*
X62746000Y-27149514D01*
X62741931Y-27129056D01*
X62732138Y-27127108D01*
X62694301Y-27132898D01*
X62674503Y-27137615D01*
X62481657Y-27200646D01*
X62462892Y-27208534D01*
X62282937Y-27302213D01*
X62265700Y-27313068D01*
X62103476Y-27434870D01*
X62088235Y-27448401D01*
X61948080Y-27595065D01*
X61935257Y-27610901D01*
X61820937Y-27778487D01*
X61810877Y-27796196D01*
X61725463Y-27980205D01*
X61718428Y-27999327D01*
X61664911Y-28192301D01*
X50200000Y-28192301D01*
X50200000Y-22449000D01*
X50218954Y-22353712D01*
X50272930Y-22272930D01*
X50353712Y-22218954D01*
X50449000Y-22200000D01*
X202551000Y-22200000D01*
X202646288Y-22218954D01*
G37*
%TD.AperFunction*%
%TD*%
%TA.AperFunction,Conductor*%
%TO.N,/LED_FB*%
G36*
X202434121Y-74020002D02*
G01*
X202480614Y-74073658D01*
X202492000Y-74126000D01*
X202492000Y-144366000D01*
X202471998Y-144434121D01*
X202418342Y-144480614D01*
X202366000Y-144492000D01*
X125626000Y-144492000D01*
X125557879Y-144471998D01*
X125511386Y-144418342D01*
X125500000Y-144366000D01*
X125500000Y-83657512D01*
X129489433Y-83657512D01*
X129489662Y-83660357D01*
X129489662Y-83660360D01*
X129517465Y-84005910D01*
X129522273Y-84065668D01*
X129591969Y-84469168D01*
X129697949Y-84864691D01*
X129839340Y-85248980D01*
X130014979Y-85618874D01*
X130132260Y-85817186D01*
X130193473Y-85920691D01*
X130223418Y-85971326D01*
X130462944Y-86303436D01*
X130731584Y-86612471D01*
X131027126Y-86895886D01*
X131029344Y-86897656D01*
X131029349Y-86897661D01*
X131187133Y-87023618D01*
X131347139Y-87151349D01*
X131349520Y-87152919D01*
X131639482Y-87344113D01*
X131688989Y-87376757D01*
X131691519Y-87378113D01*
X131691518Y-87378113D01*
X131998340Y-87542630D01*
X132049860Y-87570255D01*
X132426784Y-87730250D01*
X132429522Y-87731129D01*
X132813931Y-87854549D01*
X132813935Y-87854550D01*
X132816657Y-87855424D01*
X132819447Y-87856048D01*
X132819452Y-87856049D01*
X133213477Y-87944125D01*
X133213488Y-87944127D01*
X133216271Y-87944749D01*
X133622335Y-87997487D01*
X134031509Y-88013206D01*
X134034371Y-88013056D01*
X134034372Y-88013056D01*
X134437566Y-87991926D01*
X134437573Y-87991925D01*
X134440422Y-87991776D01*
X134443245Y-87991369D01*
X134443247Y-87991369D01*
X134842889Y-87933780D01*
X134842896Y-87933779D01*
X134845711Y-87933373D01*
X135244038Y-87838478D01*
X135246736Y-87837570D01*
X135246743Y-87837568D01*
X135629414Y-87708785D01*
X135629420Y-87708783D01*
X135632126Y-87707872D01*
X136006779Y-87542630D01*
X136364914Y-87344113D01*
X136703583Y-87113954D01*
X137019998Y-86854047D01*
X137022036Y-86852038D01*
X137022043Y-86852031D01*
X137267161Y-86610311D01*
X137311555Y-86566533D01*
X137317261Y-86559781D01*
X137574008Y-86255963D01*
X137574013Y-86255957D01*
X137575854Y-86253778D01*
X137810719Y-85918356D01*
X138014217Y-85563027D01*
X138156815Y-85251567D01*
X138183485Y-85193316D01*
X138183488Y-85193307D01*
X138184674Y-85190718D01*
X138320685Y-84804492D01*
X138421133Y-84407528D01*
X138485189Y-84003095D01*
X138512326Y-83594520D01*
X138513316Y-83500000D01*
X138494741Y-83090947D01*
X138439169Y-82685260D01*
X138347057Y-82286280D01*
X138341460Y-82269255D01*
X138220057Y-81900005D01*
X138220054Y-81899998D01*
X138219164Y-81897290D01*
X138056542Y-81521492D01*
X137860529Y-81161980D01*
X137780190Y-81041971D01*
X137634332Y-80824090D01*
X137634324Y-80824079D01*
X137632740Y-80821713D01*
X137375049Y-80503491D01*
X137196382Y-80319763D01*
X137091567Y-80211980D01*
X137091563Y-80211976D01*
X137089577Y-80209934D01*
X137087419Y-80208084D01*
X137087409Y-80208075D01*
X136780849Y-79945321D01*
X136780844Y-79945317D01*
X136778675Y-79943458D01*
X136776344Y-79941801D01*
X136776337Y-79941796D01*
X136570663Y-79795632D01*
X136444900Y-79706257D01*
X136218345Y-79574399D01*
X136093474Y-79501722D01*
X136093469Y-79501719D01*
X136091001Y-79500283D01*
X135856846Y-79391095D01*
X135722487Y-79328442D01*
X135722477Y-79328438D01*
X135719891Y-79327232D01*
X135717194Y-79326261D01*
X135337314Y-79189495D01*
X135337305Y-79189492D01*
X135334624Y-79188527D01*
X135072247Y-79120183D01*
X134941140Y-79086032D01*
X134941134Y-79086031D01*
X134938371Y-79085311D01*
X134534395Y-79018433D01*
X134531552Y-79018224D01*
X134531550Y-79018224D01*
X134128865Y-78988653D01*
X134126019Y-78988444D01*
X133956043Y-78991411D01*
X133719458Y-78995540D01*
X133719453Y-78995540D01*
X133716607Y-78995590D01*
X133713774Y-78995898D01*
X133713770Y-78995898D01*
X133384896Y-79031625D01*
X133309527Y-79039813D01*
X132908130Y-79120749D01*
X132905402Y-79121562D01*
X132905391Y-79121565D01*
X132592867Y-79214733D01*
X132515721Y-79237731D01*
X132513060Y-79238795D01*
X132513058Y-79238796D01*
X132288927Y-79328442D01*
X132135529Y-79389797D01*
X132132982Y-79391095D01*
X131773227Y-79574399D01*
X131773222Y-79574402D01*
X131770684Y-79575695D01*
X131424189Y-79793894D01*
X131098896Y-80042599D01*
X130797483Y-80319763D01*
X130522430Y-80623104D01*
X130276002Y-80950125D01*
X130060227Y-81298135D01*
X130058947Y-81300691D01*
X130058942Y-81300700D01*
X129949635Y-81518982D01*
X129876881Y-81664269D01*
X129875840Y-81666925D01*
X129875837Y-81666932D01*
X129785561Y-81897290D01*
X129727473Y-82045513D01*
X129726681Y-82048240D01*
X129726677Y-82048251D01*
X129656715Y-82289063D01*
X129613233Y-82438729D01*
X129535101Y-82840681D01*
X129493721Y-83248060D01*
X129489433Y-83657512D01*
X125500000Y-83657512D01*
X125500000Y-74126000D01*
X125520002Y-74057879D01*
X125573658Y-74011386D01*
X125626000Y-74000000D01*
X202366000Y-74000000D01*
X202434121Y-74020002D01*
G37*
%TD.AperFunction*%
%TD*%
M02*
