M48
; DRILL file {KiCad 6.0.0-rc1-unknown-c40e921cb3~144~ubuntu20.04.1} date Tue 23 Nov 2021 08:47:08 PM EET
; FORMAT={-:-/ absolute / metric / decimal}
; #@! TF.CreationDate,2021-11-23T20:47:08+02:00
; #@! TF.GenerationSoftware,Kicad,Pcbnew,6.0.0-rc1-unknown-c40e921cb3~144~ubuntu20.04.1
; #@! TF.FileFunction,MixedPlating,1,2
FMAT,2
METRIC
; #@! TA.AperFunction,Plated,PTH,ViaDrill
T1C0.400
; #@! TA.AperFunction,Plated,PTH,ComponentDrill
T2C1.000
; #@! TA.AperFunction,Plated,PTH,ComponentDrill
T3C6.000
%
G90
G05
T1
X50.992Y-24.0
X50.992Y-29.0
X50.992Y-34.0
X50.992Y-39.0
X50.992Y-44.0
X50.992Y-49.0
X50.992Y-54.0
X50.992Y-59.0
X50.992Y-64.0
X50.992Y-69.0
X50.992Y-74.0
X50.992Y-79.0
X50.992Y-84.0
X50.992Y-89.0
X50.992Y-94.0
X50.992Y-99.0
X50.992Y-104.0
X50.992Y-109.0
X50.992Y-114.0
X50.992Y-119.0
X50.992Y-124.0
X50.992Y-129.0
X50.992Y-134.0
X50.992Y-139.0
X50.992Y-144.0
X55.992Y-24.0
X56.0Y-144.0
X60.992Y-24.0
X61.0Y-144.0
X65.992Y-24.0
X66.0Y-144.0
X70.992Y-24.0
X71.0Y-144.0
X75.992Y-24.0
X76.0Y-144.0
X80.992Y-24.0
X81.0Y-144.0
X85.992Y-24.0
X86.0Y-144.0
X90.992Y-24.0
X91.0Y-144.0
X95.992Y-24.0
X96.0Y-144.0
X100.992Y-24.0
X101.0Y-144.0
X105.992Y-24.0
X106.0Y-144.0
X110.992Y-24.0
X111.0Y-144.0
X113.5Y-83.5
X115.0Y-79.5
X115.0Y-87.5
X115.992Y-24.0
X116.0Y-144.0
X119.0Y-78.0
X119.0Y-89.0
X120.992Y-24.0
X121.0Y-144.0
X122.5Y-79.5
X123.5Y-73.0
X124.1Y-65.1
X125.1Y-63.2
X125.988Y-76.7
X125.988Y-78.7
X125.992Y-24.0
X126.0Y-77.7
X126.0Y-79.7
X126.0Y-87.3
X126.0Y-88.3
X126.0Y-89.3
X126.0Y-90.3
X126.3Y-83.5
X126.5Y-75.0
X126.5Y-95.0
X126.5Y-100.0
X126.5Y-105.0
X126.5Y-110.0
X126.5Y-115.0
X126.5Y-120.0
X126.5Y-125.0
X126.5Y-130.0
X126.5Y-135.0
X126.5Y-140.0
X126.988Y-76.7
X126.988Y-78.7
X127.0Y-77.7
X127.0Y-79.7
X127.0Y-87.3
X127.0Y-88.3
X127.0Y-89.3
X127.0Y-90.3
X127.2Y-83.5
X127.3Y-63.1
X127.3Y-64.7
X127.988Y-76.7
X127.988Y-78.7
X128.0Y-77.7
X128.0Y-79.7
X128.0Y-87.3
X128.0Y-88.3
X128.0Y-89.3
X128.0Y-90.3
X128.1Y-83.5
X128.8Y-52.9
X128.988Y-76.7
X128.988Y-78.7
X129.0Y-59.6
X129.0Y-77.7
X129.0Y-79.7
X129.0Y-83.5
X129.0Y-87.3
X129.0Y-88.3
X129.0Y-89.3
X129.0Y-90.3
X129.2Y-65.7
X129.988Y-76.699
X129.988Y-78.699
X130.0Y-77.699
X130.0Y-79.699
X130.0Y-87.3
X130.0Y-88.3
X130.0Y-89.3
X130.0Y-90.3
X130.992Y-24.0
X131.5Y-75.0
X131.5Y-90.0
X131.5Y-95.0
X131.5Y-100.0
X131.5Y-105.0
X131.5Y-110.0
X131.5Y-115.0
X131.5Y-120.0
X131.5Y-125.0
X131.5Y-130.0
X131.5Y-135.0
X131.5Y-140.0
X131.523Y-52.902
X131.523Y-54.102
X132.1Y-46.4
X132.7Y-64.4
X133.6Y-63.1
X133.8Y-66.6
X134.6Y-46.3
X135.992Y-24.0
X136.4Y-43.2
X136.5Y-75.0
X136.5Y-90.0
X136.5Y-95.0
X136.5Y-100.0
X136.5Y-105.0
X136.5Y-110.0
X136.5Y-115.0
X136.5Y-120.0
X136.5Y-125.0
X136.5Y-130.0
X136.5Y-135.0
X136.5Y-140.0
X136.6Y-65.5
X137.5Y-73.0
X138.8Y-41.7
X138.8Y-44.6
X140.522Y-60.502
X140.7Y-67.8
X140.7Y-70.8
X140.992Y-24.0
X141.1Y-66.6
X141.3Y-43.7
X141.5Y-75.0
X141.5Y-80.0
X141.5Y-85.0
X141.5Y-90.0
X141.5Y-95.0
X141.5Y-100.0
X141.5Y-105.0
X141.5Y-110.0
X141.5Y-115.0
X141.5Y-120.0
X141.5Y-125.0
X141.5Y-130.0
X141.5Y-135.0
X141.5Y-140.0
X143.5Y-53.6
X143.6Y-47.2
X145.2Y-47.2
X145.222Y-58.203
X145.263Y-51.263
X145.992Y-24.0
X146.5Y-75.0
X146.5Y-80.0
X146.5Y-85.0
X146.5Y-90.0
X146.5Y-95.0
X146.5Y-100.0
X146.5Y-105.0
X146.5Y-110.0
X146.5Y-115.0
X146.5Y-120.0
X146.5Y-125.0
X146.5Y-130.0
X146.5Y-135.0
X146.5Y-140.0
X147.9Y-59.2
X148.4Y-51.3
X149.9Y-48.9
X150.992Y-24.0
X151.282Y-47.282
X151.5Y-75.0
X151.5Y-80.0
X151.5Y-85.0
X151.5Y-90.0
X151.5Y-95.0
X151.5Y-100.0
X151.5Y-105.0
X151.5Y-110.0
X151.5Y-115.0
X151.5Y-120.0
X151.5Y-125.0
X151.5Y-130.0
X151.5Y-135.0
X151.5Y-140.0
X154.79Y-49.1
X154.79Y-50.6
X155.825Y-48.185
X155.992Y-24.0
X156.5Y-75.0
X156.5Y-80.0
X156.5Y-85.0
X156.5Y-90.0
X156.5Y-95.0
X156.5Y-100.0
X156.5Y-105.0
X156.5Y-110.0
X156.5Y-115.0
X156.5Y-120.0
X156.5Y-125.0
X156.5Y-130.0
X156.5Y-135.0
X156.5Y-140.0
X158.99Y-43.2
X158.99Y-46.6
X159.2Y-56.1
X160.992Y-24.0
X161.5Y-75.0
X161.5Y-80.0
X161.5Y-85.0
X161.5Y-90.0
X161.5Y-95.0
X161.5Y-100.0
X161.5Y-105.0
X161.5Y-110.0
X161.5Y-115.0
X161.5Y-120.0
X161.5Y-125.0
X161.5Y-130.0
X161.5Y-135.0
X161.5Y-140.0
X164.025Y-40.785
X165.325Y-40.785
X165.992Y-24.0
X166.5Y-75.0
X166.5Y-80.0
X166.5Y-85.0
X166.5Y-90.0
X166.5Y-95.0
X166.5Y-100.0
X166.5Y-105.0
X166.5Y-110.0
X166.5Y-115.0
X166.5Y-120.0
X166.5Y-125.0
X166.5Y-130.0
X166.5Y-135.0
X166.5Y-140.0
X166.525Y-41.885
X170.992Y-24.0
X171.5Y-75.0
X171.5Y-80.0
X171.5Y-85.0
X171.5Y-90.0
X171.5Y-95.0
X171.5Y-100.0
X171.5Y-105.0
X171.5Y-110.0
X171.5Y-115.0
X171.5Y-120.0
X171.5Y-125.0
X171.5Y-130.0
X171.5Y-135.0
X171.5Y-140.0
X175.992Y-24.0
X176.5Y-75.0
X176.5Y-80.0
X176.5Y-85.0
X176.5Y-90.0
X176.5Y-95.0
X176.5Y-100.0
X176.5Y-105.0
X176.5Y-110.0
X176.5Y-115.0
X176.5Y-120.0
X176.5Y-125.0
X176.5Y-130.0
X176.5Y-135.0
X176.5Y-140.0
X180.992Y-24.0
X181.5Y-75.0
X181.5Y-80.0
X181.5Y-85.0
X181.5Y-90.0
X181.5Y-95.0
X181.5Y-100.0
X181.5Y-105.0
X181.5Y-110.0
X181.5Y-115.0
X181.5Y-120.0
X181.5Y-125.0
X181.5Y-130.0
X181.5Y-135.0
X181.5Y-140.0
X185.992Y-24.0
X186.5Y-75.0
X186.5Y-80.0
X186.5Y-85.0
X186.5Y-90.0
X186.5Y-95.0
X186.5Y-100.0
X186.5Y-105.0
X186.5Y-110.0
X186.5Y-115.0
X186.5Y-120.0
X186.5Y-125.0
X186.5Y-130.0
X186.5Y-135.0
X186.5Y-140.0
X190.992Y-24.0
X191.072Y-32.9
X191.1Y-31.1
X191.5Y-75.0
X191.5Y-80.0
X191.5Y-85.0
X191.5Y-90.0
X191.5Y-95.0
X191.5Y-100.0
X191.5Y-105.0
X191.5Y-110.0
X191.5Y-115.0
X191.5Y-120.0
X191.5Y-125.0
X191.5Y-130.0
X191.5Y-135.0
X191.5Y-140.0
X196.5Y-75.0
X196.5Y-80.0
X196.5Y-85.0
X196.5Y-90.0
X196.5Y-95.0
X196.5Y-100.0
X196.5Y-105.0
X196.5Y-110.0
X196.5Y-115.0
X196.5Y-120.0
X196.5Y-125.0
X196.5Y-130.0
X196.5Y-135.0
X196.5Y-140.0
X200.992Y-24.0
X201.0Y-29.0
X201.0Y-34.0
X201.0Y-49.0
X201.0Y-54.0
X201.0Y-59.0
X201.0Y-64.0
X201.5Y-70.0
X201.5Y-75.0
X201.5Y-80.0
X201.5Y-85.0
X201.5Y-90.0
X201.5Y-95.0
X201.5Y-100.0
X201.5Y-105.0
X201.5Y-110.0
X201.5Y-115.0
X201.5Y-120.0
X201.5Y-125.0
X201.5Y-130.0
X201.5Y-135.0
X201.5Y-140.0
X201.6Y-39.1
X201.6Y-43.1
T2
X63.0Y-28.46
X63.0Y-31.0
X105.0Y-28.46
X105.0Y-31.0
X146.0Y-28.46
X146.0Y-31.0
X161.91Y-56.6
X161.91Y-59.14
X164.45Y-56.6
X164.45Y-59.14
X166.99Y-56.6
X166.99Y-59.14
T3
X119.0Y-83.5
X134.0Y-83.5
T0
M30
